<svg version="1.1" id="Layer_1" xmlns="http://www.w3.org/2000/svg" xmlns:xlink="http://www.w3.org/1999/xlink" x="0px" y="0px"
	 width="100%" viewBox="0 0 1024 1024" enable-background="new 0 0 1024 1024" xml:space="preserve">
<path fill="#000000" opacity="1.000000" stroke="none"
	d="
M359.990967,723.954102
	C372.653290,730.831238 372.677002,730.835266 370.334259,744.719788
	C367.181641,763.404114 363.986145,782.081238 360.814941,800.762390
	C360.511749,802.548462 359.953674,804.323853 360.620880,806.870789
	C362.672638,805.033875 364.515533,803.477417 366.254547,801.812439
	C381.775330,786.952148 397.338287,772.134888 412.729401,757.141235
	C415.478668,754.462891 417.786591,754.065552 421.061584,755.932739
	C426.556885,759.065918 432.183441,761.979248 437.840485,764.814026
	C440.891266,766.342712 441.615967,768.533264 441.072510,771.757507
	C435.076050,807.334534 429.164612,842.925964 423.199127,878.508301
	C422.903412,880.272156 422.321686,881.987976 421.746979,884.214783
	C413.470398,880.781799 406.212341,876.431335 398.835358,872.346741
	C396.624420,871.122559 397.546967,868.690735 397.867798,866.843567
	C401.563263,845.569336 405.370941,824.314514 409.109192,803.047668
	C409.653809,799.948975 409.991730,796.814026 410.485443,793.263367
	C408.130188,793.688354 406.923798,795.268188 405.595367,796.537598
	C388.856964,812.531921 372.083160,828.490417 355.487518,844.631897
	C352.692596,847.350342 350.526062,847.604614 347.275269,845.605652
	C343.029785,842.995178 338.549896,840.708923 333.994537,838.678772
	C330.765167,837.239441 330.096375,835.175293 330.658997,831.947327
	C334.227051,811.475037 337.686859,790.983948 341.190521,770.500366
	C341.971252,765.936157 342.784546,761.377441 343.810822,755.513733
	C341.386414,757.762146 339.751282,759.216492 338.184570,760.741150
	C321.591034,776.889160 304.958069,792.997314 288.473724,809.256104
	C285.816681,811.876770 283.702454,812.620056 280.289581,810.546570
	C274.640686,807.114624 268.686432,804.185425 263.070282,801.157288
	C263.282196,798.225403 265.184601,797.185181 266.564240,795.839905
	C291.845917,771.186584 317.233582,746.641052 342.373413,721.844116
	C345.966553,718.299927 348.860718,717.347534 353.036987,720.297852
	C355.057831,721.725464 357.444000,722.635925 359.990967,723.954102
z"/>
<path fill="#000000" opacity="1.000000" stroke="none"
	d="
M174.196655,389.155029
	C191.651657,374.877441 210.795166,373.262390 230.870636,380.923157
	C251.209045,388.684357 262.328888,403.959625 265.424530,425.484131
	C267.087250,437.045380 264.593597,447.992249 261.890228,458.984070
	C258.714264,471.897430 255.295654,484.751892 252.207748,497.685699
	C251.258438,501.661896 249.606384,502.696869 245.542313,501.667175
	C212.478256,493.289948 179.384811,485.025269 146.242111,476.965698
	C141.620834,475.841888 140.963730,473.857269 142.059738,469.675598
	C146.107132,454.233246 149.824478,438.704773 153.795822,423.242035
	C157.192673,410.016052 163.637695,398.545013 174.196655,389.155029
M205.672440,463.718536
	C214.240143,465.800110 222.847626,467.734772 231.355164,470.038483
	C234.575226,470.910431 235.950226,470.063507 236.669556,466.956146
	C238.393448,459.509430 240.460571,452.139526 242.076401,444.670959
	C245.893311,427.028870 236.775299,411.484039 219.570877,405.977173
	C201.030777,400.042725 184.660110,407.042145 177.492752,424.173431
	C173.947281,432.647736 172.699341,441.803680 170.175064,450.583130
	C169.232788,453.860321 170.318985,455.011597 173.393295,455.739563
	C183.905273,458.228699 194.365021,460.938446 205.672440,463.718536
z"/>
<path fill="#000000" opacity="1.000000" stroke="none"
	d="
M694.635742,740.606689
	C698.450195,737.669678 701.981140,734.949280 706.016907,731.839905
	C700.928894,725.122864 696.177490,718.754211 691.320557,712.467163
	C687.038635,706.924438 686.989502,706.968567 692.754456,702.606567
	C696.738403,699.592163 700.905518,696.782349 704.631531,693.476196
	C707.689636,690.762939 709.425537,691.269531 711.784851,694.381714
	C730.196167,718.667908 748.751221,742.845032 767.264526,767.053894
	C769.995972,770.625732 772.670044,774.244873 775.505249,777.732666
	C777.306458,779.948486 776.864380,781.389709 774.671509,783.046204
	C761.784363,792.781128 749.142395,802.849121 736.088623,812.352600
	C723.949158,821.190552 710.450989,826.084839 695.256348,822.231384
	C673.223328,816.643616 660.280334,791.796753 668.380066,770.625793
	C670.055054,766.247742 668.977661,764.735046 664.959839,763.529968
	C654.917542,760.518066 644.936157,757.299988 634.960754,754.070679
	C633.288025,753.529175 631.297913,753.437073 629.806458,751.238586
	C636.509216,745.348389 643.552795,739.916748 651.014832,735.038086
	C652.501587,734.066040 654.255920,735.092957 655.832764,735.589966
	C663.772705,738.092590 671.883423,740.170593 679.590393,743.256348
	C685.372742,745.571533 690.059387,745.494934 694.635742,740.606689
M715.515930,752.209656
	C710.131226,756.393982 704.521240,760.322327 699.412109,764.819641
	C690.680054,772.505920 689.613586,782.366150 696.123718,791.001526
	C702.491516,799.447815 711.926636,800.984131 721.737488,794.653687
	C727.735229,790.783691 733.240295,786.157776 739.080383,782.032288
	C741.802429,780.109436 741.736206,778.361206 739.811646,775.890564
	C733.676392,768.014954 727.592285,760.095581 721.684570,752.049011
	C719.660034,749.291382 718.015686,749.892639 715.515930,752.209656
z"/>
<path fill="#000000" opacity="1.000000" stroke="none"
	d="
M236.290390,642.420410
	C213.592682,649.198792 191.265823,655.821045 168.996628,662.631836
	C165.404312,663.730469 163.782639,662.758484 162.838730,659.299622
	C161.350250,653.845459 159.668243,648.440613 157.933609,643.058228
	C156.975555,640.085632 157.651215,638.510376 160.863495,637.602295
	C170.788513,634.796692 180.636765,631.719543 190.515625,628.750427
	C191.920670,628.328186 193.464157,628.242432 194.939102,626.724609
	C183.931091,619.257874 179.071106,608.274109 177.800247,595.589539
	C176.765884,585.265259 179.672714,575.828125 185.695862,567.361877
	C197.289413,551.065857 223.832565,544.089233 242.843475,552.354919
	C262.273254,560.802612 270.348022,580.375000 265.376923,606.973389
	C272.528931,606.386597 272.519958,606.389282 274.707184,613.642151
	C275.859589,617.463440 276.882690,621.335510 278.271484,625.070312
	C279.564667,628.547913 278.552277,630.134644 275.015778,631.129089
	C262.200928,634.732300 249.453339,638.574707 236.290390,642.420410
M211.610840,616.012085
	C222.413025,621.249939 232.192215,618.440308 240.780060,611.359314
	C249.836533,603.891968 249.421387,587.960938 240.568680,580.272705
	C231.240982,572.171997 213.583557,574.049072 205.424576,584.008728
	C197.309937,593.914246 199.630096,607.159302 211.610840,616.012085
z"/>
<path fill="#000000" opacity="1.000000" stroke="none"
	d="
M630.239258,211.292816
	C633.874390,204.699753 637.418884,198.475662 640.744141,192.136536
	C642.138367,189.478638 643.643494,188.933853 646.279785,190.447235
	C652.169128,193.828003 658.163452,197.025757 663.924927,200.193497
	C663.914429,203.443420 661.643188,205.195007 661.044189,208.138763
	C673.906799,204.847763 684.813965,208.938187 694.737122,216.334366
	C702.601807,222.196289 707.940491,229.928421 710.150208,239.584610
	C715.103333,261.228394 702.619324,285.161987 682.488281,293.920166
	C665.462097,301.327545 637.341431,294.664886 627.481079,271.995270
	C624.587830,274.740479 623.221191,278.291840 621.414368,281.506500
	C617.743286,288.037933 614.133972,294.608246 610.692505,301.262512
	C609.193420,304.161163 607.480774,304.638458 604.723511,303.034027
	C599.687012,300.103333 594.646545,297.153015 589.433960,294.560455
	C586.043030,292.873932 586.335449,290.967834 587.878174,288.185638
	C598.860046,268.380798 609.761414,248.531296 620.684143,228.693665
	C623.816528,223.004822 626.935120,217.308319 630.239258,211.292816
M664.402222,226.343246
	C662.278259,226.686569 660.114380,226.872620 658.036804,227.398911
	C645.126282,230.669342 633.484314,252.992249 646.329468,265.848694
	C653.385803,272.911224 663.182190,274.856964 671.451111,270.637817
	C679.952148,266.300171 686.580078,254.157501 685.270752,245.319824
	C683.656738,234.425964 677.886719,228.973267 664.402222,226.343246
z"/>
<path fill="#000000" opacity="1.000000" stroke="none"
	d="
M815.669312,680.398315
	C813.321594,656.553223 786.029663,642.799255 767.123169,650.482849
	C752.612671,656.379883 742.516663,673.105713 744.816589,688.604858
	C745.060913,690.251770 745.126221,691.954224 745.604248,693.530945
	C746.343872,695.970215 745.541016,697.377502 743.203064,698.075745
	C737.783569,699.694275 732.365723,701.318237 726.940857,702.918762
	C723.252258,704.007019 722.702332,701.200134 722.139038,698.792786
	C719.448853,687.297729 719.926697,675.920776 724.375732,664.947083
	C733.372131,642.757385 748.221680,627.004517 772.751831,622.592102
	C801.703735,617.384216 831.213440,636.433838 838.636719,664.892761
	C846.824463,696.281982 826.499329,732.759766 795.922302,741.553101
	C789.379883,743.434570 789.051514,743.221191 787.716614,736.609863
	C786.894775,732.539124 786.131775,728.449524 785.103699,724.429443
	C784.284973,721.228271 785.088684,719.650940 788.458740,718.631531
	C806.087891,713.298584 815.887756,699.536560 815.669312,680.398315
z"/>
<path fill="#000000" opacity="1.000000" stroke="none"
	d="
M289.339966,699.729370
	C298.533264,685.359985 285.322906,666.051575 272.890198,662.527832
	C267.220093,660.920776 266.731049,658.275208 268.324554,653.645630
	C268.915192,651.929626 269.131836,650.082825 269.493744,648.290527
	C271.227661,639.703735 271.529358,639.231262 279.786469,642.292419
	C298.934570,649.391418 309.673340,664.169250 314.237762,683.300354
	C321.389923,713.277283 296.783600,735.960083 271.693939,737.125305
	C250.519043,738.108643 229.170654,719.995422 224.674301,697.598694
	C221.032227,679.457214 229.550400,660.933472 245.603577,651.580078
	C248.623566,649.820435 250.237503,650.461426 252.147781,653.117737
	C262.839661,667.984863 273.630554,682.781677 284.522400,697.502747
	C285.503296,698.828491 286.025879,702.176208 289.339966,699.729370
M245.299942,693.344910
	C245.387314,705.533203 260.145630,720.034180 274.654175,711.048584
	C266.894714,700.371399 259.168243,689.739563 251.372879,679.012939
	C246.918106,683.188416 245.574097,686.401672 245.299942,693.344910
z"/>
<path fill="#000000" opacity="1.000000" stroke="none"
	d="
M265.578461,359.416077
	C281.936340,361.124115 295.676758,348.926270 295.779907,332.167114
	C295.813599,326.691833 297.994141,325.252686 302.542450,324.876709
	C305.189240,324.657959 307.807861,324.116852 310.451172,323.832916
	C315.813477,323.257019 316.896210,324.262695 317.288971,329.595947
	C318.197174,341.928711 313.439941,352.393494 306.462341,362.034637
	C297.026733,375.071991 284.802582,383.904510 268.195068,384.227539
	C233.769958,384.897064 211.697540,348.758575 227.821609,318.325775
	C236.377777,302.176758 249.418579,292.166565 268.248230,291.818726
	C279.292267,291.614716 288.870819,296.308319 297.580658,302.928986
	C300.585876,305.213379 299.714111,307.069000 297.935028,309.561707
	C287.201355,324.600861 276.562622,339.708008 265.956116,354.837250
	C265.075317,356.093628 262.648193,357.378052 265.578461,359.416077
M258.178467,315.481140
	C243.444046,322.734039 239.181351,340.092804 250.440018,349.184540
	C258.064636,338.423706 265.667755,327.693268 273.425507,316.744537
	C268.339020,313.863617 263.711212,313.822876 258.178467,315.481140
z"/>
<path fill="#000000" opacity="1.000000" stroke="none"
	d="
M740.548828,323.437439
	C734.365356,316.511597 728.416931,309.849731 722.076294,302.748718
	C716.858093,309.633942 717.312012,316.297729 720.257019,322.647552
	C724.507751,331.812469 731.397827,338.471191 741.642456,340.572540
	C745.225037,341.307404 746.453796,342.777588 745.941406,346.309692
	C745.440369,349.763275 745.237488,353.266632 745.039490,356.755859
	C744.820374,360.618622 743.481445,362.362671 739.084106,361.674347
	C719.892883,358.670471 707.972900,346.455170 699.853577,330.146881
	C686.261108,302.845062 701.713257,272.277405 731.627930,266.303284
	C756.258545,261.384369 784.181824,282.727417 786.400085,307.838867
	C787.865295,324.424591 781.418640,337.245972 769.063843,347.716675
	C766.240479,350.109558 764.287476,350.285797 761.693665,347.241425
	C754.888428,339.254425 747.774658,331.530304 740.548828,323.437439
M758.193665,294.300751
	C751.901611,287.347260 738.758728,286.104706 734.097351,291.772156
	C737.906311,297.630219 757.318787,318.849884 760.746887,320.902649
	C767.117859,313.065277 766.419861,304.194611 758.193665,294.300751
z"/>
<path fill="#000000" opacity="1.000000" stroke="none"
	d="
M461.143951,251.031647
	C444.923553,271.416718 411.626373,277.356415 391.339203,263.738525
	C364.686829,245.847946 366.324982,203.684631 394.425323,188.232834
	C410.800781,179.228317 427.541565,177.259872 444.107605,187.853485
	C454.155487,194.278900 459.653656,203.995590 462.892090,215.229263
	C463.981873,219.009674 461.621979,219.835098 458.945190,220.729736
	C443.476074,225.899933 428.012573,231.086914 412.556152,236.294983
	C409.418304,237.352280 406.319153,238.524338 403.210022,239.640686
	C405.274200,245.814606 413.109070,250.036789 421.193268,249.274460
	C431.420074,248.310074 440.293304,244.632965 446.049225,235.578781
	C447.632721,233.087906 449.233917,233.170715 451.425201,234.466995
	C454.434082,236.246902 457.489349,237.950974 460.557373,239.627792
	C466.089325,242.651230 466.218475,243.024185 463.047485,248.264038
	C462.531250,249.117035 461.924164,249.915054 461.143951,251.031647
M413.228607,219.655441
	C420.529266,217.142883 427.829956,214.630310 435.208557,212.090927
	C430.117340,201.726807 418.480347,198.473801 407.862457,203.820343
	C399.120514,208.222275 394.472198,217.618378 397.842499,224.462021
	C402.909241,223.656601 407.572449,221.374603 413.228607,219.655441
z"/>
<path fill="#000000" opacity="1.000000" stroke="none"
	d="
M608.871582,202.537415
	C613.304810,223.245682 606.929932,241.206726 591.431641,251.868057
	C565.276611,269.860199 520.350159,256.290619 515.254700,221.855545
	C511.482788,196.365341 527.214355,172.180359 555.598206,169.742722
	C563.119385,169.096786 570.593994,169.854691 577.816101,172.113403
	C593.145630,176.907715 603.664429,186.744385 608.871582,202.537415
M570.539856,192.774109
	C569.575256,192.519608 568.616516,192.239548 567.645081,192.014557
	C556.869202,189.518555 547.257141,194.362900 543.234253,204.308670
	C538.122803,216.945755 541.239990,229.229385 550.984314,234.848663
	C562.352539,241.404404 575.615295,237.792755 581.161560,226.172165
	C586.173096,215.671783 586.067810,198.784180 570.539856,192.774109
z"/>
<path fill="#000000" opacity="1.000000" stroke="none"
	d="
M798.543823,579.544373
	C816.513611,584.623779 834.478088,588.040161 852.334595,591.935608
	C855.362793,592.596252 856.138855,591.115051 856.671509,588.705627
	C858.822083,578.976746 861.183472,569.291626 863.153625,559.527039
	C863.951111,555.574646 865.452820,554.047485 869.586975,555.248291
	C873.571960,556.405823 877.708191,557.049377 881.786804,557.875427
	C884.634338,558.452148 885.641663,560.034912 884.998962,562.912048
	C880.795776,581.727722 876.622009,600.550049 872.506836,619.385071
	C871.860046,622.345459 870.709290,623.606323 867.353760,622.852112
	C843.833496,617.565186 820.222046,612.674438 796.750671,607.183044
	C783.539917,604.092285 772.580566,597.546631 767.908264,583.715454
	C761.727478,565.418640 770.965576,539.533569 787.179749,528.850586
	C790.646484,526.566467 792.985840,526.498657 795.398865,530.183044
	C797.672546,533.654785 800.267578,536.952454 803.014709,540.067871
	C805.854675,543.288635 806.162476,545.379395 801.743774,547.535034
	C796.501404,550.092468 792.785828,554.410828 790.691650,559.932678
	C787.360657,568.715942 789.816345,575.007202 798.543823,579.544373
z"/>
<path fill="#000000" opacity="1.000000" stroke="none"
	d="
M332.394165,237.446487
	C332.097595,236.409149 331.835999,235.777588 331.759857,235.124420
	C331.172943,230.088577 327.806396,225.451508 329.355927,220.158142
	C329.888153,218.340057 344.861877,208.063339 348.179626,206.820816
	C350.243774,211.515381 351.043976,216.587494 352.256165,221.506912
	C358.143860,245.400711 363.867371,269.335114 369.811707,293.214600
	C370.624695,296.480469 369.941711,298.561218 367.257538,300.455292
	C362.226898,304.005127 357.296570,307.701630 352.409454,311.447937
	C350.640839,312.803711 349.098511,313.313751 347.002411,312.072235
	C321.650696,297.056396 296.268127,282.092651 270.889282,267.122650
	C270.169098,266.697845 269.401215,266.353912 267.700500,265.483459
	C275.385590,259.829407 281.779510,254.886871 288.445068,250.342682
	C290.990479,248.607361 293.133698,251.259583 295.144257,252.466904
	C309.273193,260.951202 323.319763,269.572571 337.408630,278.123810
	C338.792114,278.963501 340.036041,280.207123 342.471924,280.037384
	C339.132568,265.885925 335.823822,251.864090 332.394165,237.446487
z"/>
<path fill="#000000" opacity="1.000000" stroke="none"
	d="
M495.571350,141.608704
	C496.874481,155.128845 498.148743,168.197815 499.292664,181.278198
	C501.146851,202.481323 502.778259,223.704910 504.784576,244.893265
	C505.645660,253.987686 505.606232,254.407333 496.536621,255.169632
	C492.888824,255.476212 489.199097,255.540771 485.604370,256.157715
	C481.026764,256.943390 479.274292,255.019318 478.958038,250.684967
	C478.316620,241.893387 477.488586,233.115219 476.712067,224.333740
	C474.822632,202.967422 472.896545,181.604340 471.034027,160.235672
	C470.470673,153.772415 470.143433,147.288300 469.554962,140.827667
	C469.307465,138.110550 470.212738,136.792007 472.994385,136.569153
	C478.136353,136.157196 483.263916,135.568939 488.400513,135.086136
	C494.860992,134.478882 495.054199,134.657440 495.571350,141.608704
z"/>
<path fill="#000000" opacity="1.000000" stroke="none"
	d="
M808.590393,383.323975
	C801.225525,377.953125 793.857849,378.846558 786.556396,382.332367
	C775.295044,387.708679 764.065308,393.162354 752.975830,398.881134
	C749.128052,400.865387 747.087341,400.500000 745.390381,396.325653
	C743.389038,391.402740 740.919128,386.654327 738.410706,381.959442
	C736.832520,379.005524 737.110107,377.292755 740.351135,375.713135
	C763.842773,364.264130 787.280945,352.704773 810.682312,341.072266
	C813.802734,339.521118 815.543579,340.143005 816.944153,343.234528
	C818.935242,347.629761 820.905457,352.070648 823.361328,356.209106
	C825.865967,360.429749 825.030823,362.917480 820.454529,364.392456
	C819.682068,364.641449 819.001282,365.174988 817.974609,365.745758
	C819.177429,367.455963 821.066467,367.738647 822.582214,368.478210
	C829.594482,371.899689 834.507263,377.359131 838.269409,384.056519
	C839.703918,386.610352 839.520813,388.234802 836.621521,389.541595
	C831.617310,391.797089 826.695190,394.246582 821.820862,396.773407
	C819.229065,398.117004 817.895813,397.371155 816.904907,394.798401
	C815.203552,390.380890 812.589966,386.554047 808.590393,383.323975
z"/>
<path fill="#000000" opacity="1.000000" stroke="none"
	d="
M599.313782,777.158813
	C598.978516,787.492188 591.449585,794.738220 582.060486,794.214050
	C573.674988,793.745850 566.702209,785.919800 566.981812,777.289917
	C567.270020,768.390686 575.334106,761.194885 584.415344,761.733398
	C592.110046,762.189697 597.506470,767.626465 599.313782,777.158813
z"/>
<path fill="#000000" opacity="1.000000" stroke="none"
	d="
M793.327576,490.764618
	C786.456970,493.280121 780.182251,493.358643 774.865784,488.273743
	C770.342712,483.947754 768.617188,478.523407 770.217590,472.381958
	C772.157898,464.935577 777.747375,460.761353 785.507263,460.632996
	C793.134155,460.506775 798.679626,464.189728 800.826111,470.806610
	C803.460938,478.928711 800.984192,485.786835 793.327576,490.764618
z"/>
</svg>
