<svg version="1.1" id="Layer_1" xmlns="http://www.w3.org/2000/svg" xmlns:xlink="http://www.w3.org/1999/xlink" x="0px" y="0px"
	 width="100%" viewBox="0 0 1024 1024" enable-background="new 0 0 1024 1024" xml:space="preserve">
<path fill="#000000" opacity="1.000000" stroke="none"
	d="
M793.006836,556.011475
	C785.691223,566.682434 788.925537,576.884338 801.211731,580.530090
	C809.304626,582.931641 817.633057,584.555969 825.883362,586.406189
	C834.287964,588.290955 842.770264,589.846863 851.130127,591.905640
	C855.089844,592.880676 856.583374,591.371033 857.341858,587.836182
	C859.116150,579.566467 861.002197,571.320374 862.882935,563.073914
	C864.689575,555.152161 868.107483,553.802124 875.224487,558.142700
	C876.183533,558.727600 876.466919,559.689026 878.397156,558.807922
	C882.558472,556.908325 885.723877,559.906799 884.221130,564.228821
	C882.482422,569.229431 881.746338,574.421753 880.066895,579.371155
	C877.280396,574.978455 877.437622,570.251282 878.319458,565.710999
	C879.135742,561.508362 877.027039,560.459961 873.845398,560.718201
	C870.202881,561.013916 866.866211,562.059021 864.967041,565.966919
	C862.933105,570.152039 862.614868,574.598755 862.196472,579.007507
	C861.782349,583.371155 865.799561,584.710693 868.665894,586.330383
	C871.172302,587.746582 873.415649,585.929749 875.171143,584.008362
	C876.609619,582.433777 877.653381,580.411133 880.026611,579.969116
	C879.484802,590.525085 875.840149,600.489014 874.131348,610.822571
	C874.023010,611.477051 873.765869,612.105408 873.623962,612.755981
	C871.298828,623.421204 871.300598,623.421326 860.789917,621.264221
	C853.015015,619.668579 845.388733,617.282104 837.220154,616.663879
	C838.113525,619.525085 840.355225,620.319336 842.603577,620.525330
	C846.692078,620.899902 850.658569,621.323975 854.730713,622.326172
	C859.264099,623.442017 864.213501,622.525208 868.206726,626.092285
	C869.477234,627.227234 871.507690,626.992859 872.423279,625.041748
	C874.500671,620.614624 877.705933,616.542786 876.896729,611.157471
	C876.787231,610.428589 876.750549,609.495300 878.029663,608.689758
	C882.445862,616.949707 891.057068,621.713745 895.406006,630.234131
	C896.998352,633.354004 900.235840,635.683105 902.882568,638.205383
	C907.716248,642.811829 908.932922,648.359619 907.519165,654.673279
	C905.408142,664.101074 902.964355,673.467773 901.248169,682.966309
	C899.937317,690.221191 896.934998,696.546204 891.343628,700.963806
	C880.159424,709.800110 876.367432,721.996826 875.270386,735.165039
	C874.659424,742.498474 878.575134,749.348450 881.197449,756.097412
	C884.682190,765.065796 887.305786,774.052673 887.140442,783.734192
	C887.097534,786.246460 886.901855,788.713562 886.100159,791.123657
	C883.389038,799.274719 880.967896,800.573608 872.387451,799.458618
	C867.287720,798.796021 862.208679,798.351074 857.167419,797.098694
	C846.525879,794.455139 838.592834,799.111816 831.685425,806.913452
	C823.820923,815.796143 818.546204,826.062012 814.063782,836.884705
	C811.397583,843.322083 811.557007,850.271118 810.305847,856.940186
	C805.905029,880.397461 794.957581,899.196167 774.524963,912.169739
	C767.927856,916.358521 761.820129,921.310364 755.382202,925.759155
	C742.414246,934.720459 733.319153,934.697449 718.440430,923.739563
	C714.432007,920.787415 710.971436,917.100098 707.028137,914.049072
	C686.292053,898.005371 663.824646,885.333557 638.275146,878.509216
	C628.913879,876.008850 619.893066,877.639587 610.598877,878.794006
	C590.967468,881.232422 579.178589,894.773071 566.813538,907.891296
	C556.474731,918.859863 548.006714,931.182312 539.764160,943.698547
	C538.212891,946.054138 536.713440,948.493469 535.578613,951.065552
	C528.463135,967.192017 514.796631,973.160828 498.532867,974.856873
	C493.419037,975.390137 488.207733,975.065796 483.042358,975.010620
	C472.379333,974.896790 461.869598,976.173462 451.266541,977.243164
	C429.834717,979.405518 408.537506,976.687134 388.793579,967.457886
	C379.817352,963.262024 373.923676,954.776917 367.394470,947.482666
	C360.100769,939.334351 351.637543,932.446838 340.981537,930.500183
	C330.058960,928.504883 321.644531,923.394592 313.756439,916.140503
	C303.408020,906.624023 291.169037,904.846863 277.894623,908.859253
	C275.186584,909.677795 272.450531,910.451416 269.679321,911.005066
	C257.823883,913.373718 247.402771,906.958618 245.466888,894.980591
	C243.134018,880.546265 235.326767,868.654541 228.913635,856.120667
	C226.543015,851.487549 224.102631,846.983459 223.005356,841.906372
	C219.721497,826.712341 210.953232,813.836975 205.189117,799.692200
	C204.235916,797.353210 202.150299,795.190491 200.069092,793.645081
	C190.351013,786.428650 185.107956,775.728577 179.274780,765.823975
	C172.496552,754.314819 165.082794,743.410217 156.571716,733.202454
	C154.069046,730.200806 152.362961,726.813293 150.674286,723.384399
	C143.538757,708.895691 136.506042,694.356140 129.317520,679.893860
	C126.425987,674.076538 125.296303,667.867188 125.054474,661.530090
	C124.631851,650.455139 125.964233,639.620911 130.195663,629.218140
	C131.826447,625.208984 135.122757,624.566162 138.595230,624.073608
	C148.734955,622.635010 158.185715,618.995422 167.531845,615.070557
	C170.704681,613.738159 172.366913,610.851990 172.428391,607.495789
	C172.489929,604.134888 174.933243,600.969971 173.141922,597.425110
	C172.896042,596.938599 173.887939,595.826477 174.736465,595.034058
	C173.392349,601.085449 176.112045,606.368286 178.644577,611.012329
	C180.467484,614.355042 181.936508,618.173401 184.643082,621.153503
	C185.735321,622.356079 188.762634,623.272949 187.264359,625.219543
	C186.029297,626.824219 184.347290,629.455322 181.932800,629.120972
	C175.115677,628.176758 170.441086,634.795044 163.317261,633.861633
	C161.322739,633.600281 157.128296,636.362610 154.368591,638.409180
	C155.582062,645.457031 159.512375,651.697144 159.584015,658.999390
	C159.623276,663.003113 161.993103,664.769714 166.137650,664.727966
	C176.636749,664.622192 185.929260,660.104675 195.651733,657.112366
	C201.049286,655.451111 206.523834,654.000427 212.032562,652.761047
	C214.004242,652.317383 216.071594,652.566711 216.918564,650.184631
	C217.230270,649.307983 217.902176,648.880249 218.785767,648.766357
	C223.340332,648.179077 227.676025,648.240845 232.355270,646.179871
	C238.052368,643.670593 244.527481,641.882629 250.802658,640.702820
	C256.144531,639.698608 260.832001,636.464600 266.416168,636.653931
	C268.105591,636.711243 269.949829,636.696533 270.618958,634.740906
	C271.338531,632.637939 272.966858,632.710571 274.640503,632.611938
	C276.861237,632.481079 280.047028,633.359741 280.292358,630.128845
	C280.531891,626.974182 282.459015,623.181091 278.883606,620.583008
	C277.313049,619.441772 277.562897,617.948059 277.665314,616.560120
	C278.114838,610.468750 275.778870,606.258667 270.161621,603.514465
	C267.304535,602.118530 268.301270,598.971680 269.373749,596.951782
	C271.349579,593.230530 271.271179,589.678467 269.499634,586.167664
	C268.594604,584.374084 268.727936,582.636292 268.683014,580.847107
	C268.623932,578.492920 268.884735,576.098267 265.979980,575.052795
	C264.880920,574.657166 264.747375,573.519897 264.732819,572.527710
	C264.648895,566.797791 259.884247,563.964111 256.903015,559.841492
	C265.084717,574.694946 272.900391,589.476746 264.824860,606.596436
	C266.146820,607.940613 267.109100,607.255188 267.950012,606.878540
	C271.228180,605.410217 272.709869,606.494385 273.551941,609.943298
	C274.812286,615.105347 276.483276,620.177246 278.187775,625.217102
	C279.260437,628.388733 278.590454,630.131226 275.196442,631.123047
	C248.865082,638.817688 222.641983,646.896057 196.216125,654.247131
	C186.728302,656.886475 177.509109,661.002441 166.887787,660.820312
	C164.026535,655.304382 158.469635,650.454346 160.665695,642.391479
	C161.500168,639.327576 162.146194,637.464600 165.517883,636.539856
	C174.324692,634.124023 183.008682,631.257446 191.723038,628.511536
	C192.773178,628.180603 194.067947,628.132568 194.835388,626.623230
	C180.704361,615.557800 175.889572,600.981445 178.969894,583.585876
	C179.656418,583.384460 180.011932,583.145203 180.273193,583.222900
	C195.466141,587.739868 203.446198,577.862671 210.922318,567.549561
	C215.555466,561.158203 212.944824,555.218994 205.276840,554.005981
	C222.569763,545.063965 238.606720,547.972046 253.993317,558.592712
	C249.725693,551.504150 239.053497,547.061035 226.966324,546.127014
	C216.188065,545.294189 206.553070,548.963074 196.564240,553.217224
	C197.947433,547.452454 202.963882,546.304138 206.492920,545.317627
	C217.138870,542.341736 218.319778,532.754211 222.307755,525.070435
	C223.011902,523.713684 222.691483,522.059326 222.027222,520.687866
	C219.942215,516.383118 218.700790,512.013550 220.089905,507.199097
	C220.579285,505.503052 219.763367,504.213074 218.100677,503.691620
	C213.490219,502.245636 211.164383,497.499115 205.472900,496.192657
	C208.280121,494.410400 210.634293,494.117004 212.049637,494.926453
	C217.079208,497.802704 222.941238,497.636444 227.920044,499.521851
	C232.913269,501.412720 237.300339,501.798248 242.600998,501.069580
	C243.000900,501.000336 242.993149,500.992126 242.993149,500.992126
	C243.986435,503.543304 245.503418,504.767151 248.585312,504.798889
	C252.478760,504.838959 253.635239,501.867706 254.346634,499.609802
	C255.957870,494.496033 257.698608,489.193390 258.321594,484.008942
	C259.076965,477.722809 261.685242,471.959320 262.426605,465.605225
	C262.895020,461.590485 264.421295,457.091400 264.748230,452.638580
	C264.796417,451.982300 264.768799,451.164215 265.135040,450.710754
	C272.172485,441.997437 267.250641,431.858765 268.552643,422.473419
	C263.901093,418.705109 264.766968,412.522675 262.467010,407.651276
	C259.727264,401.848328 256.829285,396.498718 252.856537,391.504883
	C250.768707,388.880493 246.834976,388.020203 245.878250,383.958832
	C247.989258,383.329651 249.816971,383.633423 251.655151,384.343353
	C263.410187,388.883331 275.057739,387.450806 286.403625,383.099121
	C291.711975,381.063080 295.975708,377.077362 299.603302,372.680817
	C301.009583,370.976471 302.339966,370.510956 304.641998,371.243195
	C302.421539,377.740967 302.589142,384.575836 301.312561,391.213226
	C300.091553,397.561829 301.441467,403.412933 305.887878,408.427643
	C310.135468,413.218201 311.709015,418.867188 310.238647,425.152527
	C308.835358,431.151154 307.274597,437.115051 305.671051,443.063995
	C304.440033,447.631073 301.052277,450.675690 297.766663,453.774048
	C289.880615,461.210693 289.613312,462.766479 294.185303,472.335449
	C296.789673,477.786224 298.788574,483.597382 299.246368,489.510651
	C299.833496,497.094818 303.931274,502.386261 308.325470,507.891479
	C316.124176,517.661804 324.283081,527.069336 333.282043,535.770996
	C339.534485,541.816833 343.364960,549.419434 345.461700,557.793762
	C347.803986,567.148804 352.099579,575.538513 357.352020,583.510986
	C358.648132,585.478271 359.771210,587.506836 360.219147,589.839783
	C362.004486,599.138428 367.421021,606.535767 372.712921,614.038452
	C382.388824,627.756592 393.480804,640.761719 401.154724,655.533020
	C410.578217,673.672180 422.818054,687.992981 440.668945,697.749695
	C451.059723,703.429016 459.154114,712.483032 469.759735,717.920227
	C472.289734,719.217346 474.485229,721.267883 475.918182,723.681885
	C480.797394,731.901367 487.857086,738.396729 493.301208,746.183533
	C497.820190,752.647095 504.210236,757.356445 510.695343,761.794006
	C512.826294,763.252197 515.148193,763.839478 517.806213,763.337280
	C523.532104,762.255188 528.551636,763.743896 533.251404,767.290466
	C539.246704,771.814758 546.644897,773.043335 553.703003,774.878052
	C556.537292,775.614807 559.328552,774.761902 561.233032,772.123657
	C562.294312,770.653381 563.424011,769.209167 565.752869,768.659546
	C566.654297,772.464600 566.785706,776.393311 566.153137,779.997437
	C564.036316,792.058350 579.182434,798.740356 587.848389,796.512085
	C596.000610,794.416016 603.770813,781.101379 601.569519,773.109558
	C599.529419,765.702881 594.194214,761.430603 586.544922,761.057373
	C585.397888,761.001404 584.189636,761.139282 582.968811,760.038879
	C582.804810,757.208130 582.729797,754.206299 581.120300,751.267578
	C579.573669,748.443909 581.012512,745.601013 583.996704,744.282410
	C588.374023,742.348328 590.543945,739.171936 591.503662,734.498169
	C592.674927,728.793823 596.178589,727.499451 601.023682,730.903015
	C603.963257,732.968018 606.762085,733.397400 609.917786,732.126831
	C615.957214,729.695129 623.192810,730.015686 627.684631,723.957886
	C629.385742,721.663757 631.287476,719.613708 631.850525,716.712585
	C632.214600,714.836609 633.153809,713.342529 634.707642,712.181274
	C641.183289,707.341614 645.390930,700.806641 648.184753,693.373169
	C649.577881,689.666199 651.602295,686.521362 654.517212,683.950195
	C671.833740,668.675476 680.997742,648.489502 688.899780,627.463135
	C692.244629,618.562988 695.096313,609.532349 697.746216,600.417358
	C698.250000,598.684570 699.066895,596.964539 700.083069,595.472717
	C704.201965,589.425781 708.490356,583.551086 710.679871,576.365234
	C711.755432,572.835632 714.941528,570.447266 717.606018,567.946289
	C723.447327,562.463501 726.192810,555.721558 725.791809,547.809387
	C725.416626,540.408081 726.806519,533.664795 731.178650,527.487122
	C734.573792,522.690002 735.178650,517.062073 735.029663,511.247162
	C734.715820,498.996613 740.343994,489.566620 749.566589,482.004608
	C750.448120,481.281769 751.486145,480.633209 752.559998,480.280853
	C758.618225,478.292786 760.087463,476.329437 757.966125,470.296906
	C754.725220,461.080933 751.363403,459.254700 743.825562,465.681702
	C738.203918,470.474945 737.476318,470.705933 735.310242,463.368317
	C730.869934,448.326233 720.032227,443.195465 705.771301,441.798767
	C695.347595,440.777924 684.981506,439.159424 675.355042,434.417297
	C672.751343,433.134644 669.579407,432.912445 666.630493,432.439331
	C653.370056,430.311890 644.809875,422.390228 639.999084,410.315247
	C637.356567,403.682343 634.543762,396.986511 633.460815,389.878082
	C630.770447,372.217987 621.161438,359.040039 607.431519,348.350861
	C602.966187,344.874420 598.599121,341.268585 594.252563,337.643433
	C589.569397,333.737518 585.847595,329.374451 584.723816,322.921997
	C583.697815,317.031372 578.668884,314.350647 572.347778,316.616730
	C566.679810,318.648682 563.477356,316.751007 559.965881,312.564880
	C546.185791,296.136932 527.797607,292.190491 507.585724,294.564331
	C499.956421,295.460388 492.361237,296.315552 484.702026,296.196655
	C475.705750,296.057037 467.307983,294.566620 463.497467,284.652374
	C462.588257,282.286804 460.308899,281.738678 458.049591,282.015320
	C450.268341,282.967987 442.081268,281.736664 434.744629,283.487793
	C426.545868,285.444702 417.299713,287.978607 414.653381,298.857117
	C412.605927,307.273804 408.685425,314.963165 399.049255,317.328552
	C394.322052,318.488953 389.427277,316.760437 384.685852,318.015137
	C384.528839,318.056702 384.345764,317.999542 384.188599,318.040802
	C373.276825,320.905762 362.137512,319.971191 351.045685,320.277100
	C343.632782,320.481567 337.434021,325.262756 330.492462,327.475861
	C326.659424,328.697906 321.486908,329.012817 322.315063,336.460846
	C319.125336,332.931152 319.836792,330.171631 319.870392,327.669464
	C319.920746,323.919189 318.524841,322.120605 314.573486,322.288025
	C310.083099,322.478333 305.571075,322.183197 301.083527,322.404541
	C299.196747,322.497559 296.539673,321.951080 296.095154,325.547668
	C296.010773,325.975830 295.738892,326.299927 295.432251,326.414795
	C293.749908,327.688507 293.317688,329.210358 293.315186,330.953156
	C293.305084,337.972656 291.788910,344.311462 285.439331,348.524719
	C284.844147,348.919647 284.641632,349.883514 284.212158,350.554626
	C281.271484,355.149353 273.409180,357.996216 268.822510,355.802124
	C272.783447,348.042480 278.066406,341.302673 283.594513,334.633789
	C287.665161,329.723175 290.836243,324.074280 294.546631,318.852753
	C295.585480,317.390839 294.189362,317.244598 293.900208,316.334106
	C294.148041,315.982300 294.249176,315.842957 294.350281,315.703644
	C298.753021,314.081329 299.444153,309.259216 302.842194,306.334015
	C294.943756,295.525146 284.386169,290.742065 271.480530,290.262238
	C266.030670,290.059631 260.602325,290.755066 255.107346,289.968414
	C252.169510,289.547791 249.775314,292.239410 247.405548,294.045807
	C242.505371,297.781006 236.216324,299.575073 232.496811,304.986267
	C228.797424,310.368134 225.875183,316.207001 223.473572,322.184204
	C222.405228,324.843170 220.064423,326.507965 219.661789,329.548004
	C216.512360,326.180664 217.605682,322.788330 218.654053,319.452240
	C223.288406,304.704895 233.629944,295.011444 246.976654,288.266510
	C252.688095,285.380096 257.446136,281.218994 262.771454,277.839661
	C264.946899,276.459198 264.612366,274.245178 264.242950,271.989532
	C263.479431,267.327301 263.430878,262.696106 266.029663,258.442505
	C266.634949,257.451843 267.117493,256.342926 268.966949,256.554504
	C269.155121,259.734009 267.914825,262.841553 268.161407,266.092743
	C268.384949,269.040131 269.573792,270.495270 272.185394,271.605133
	C281.230316,275.449005 289.466797,280.689484 297.664856,286.100983
	C301.650116,288.731659 306.198517,290.578308 310.192596,293.409790
	C314.358429,296.363007 319.585175,297.599091 323.420868,301.211090
	C324.854584,302.561188 324.698120,300.522736 325.653015,300.105560
	C325.963257,300.042480 326.239777,300.290771 326.239777,300.290771
	C325.745361,303.762573 328.814850,305.181580 330.786255,306.051392
	C336.321960,308.493774 341.336151,311.577698 346.187164,315.137604
	C348.340454,316.717773 350.922882,315.786163 353.238617,314.473236
	C357.451996,312.084473 360.667877,308.481262 364.405823,305.518219
	C366.891937,303.547516 370.280182,303.191254 372.193390,299.978882
	C374.060120,296.844421 374.590576,294.408630 372.043915,291.675262
	C371.714111,291.321259 370.969818,290.927765 371.025360,290.702179
	C372.708252,283.866425 367.445251,278.768555 366.495605,272.526367
	C365.416168,265.431335 364.659241,258.302856 362.316803,251.287201
	C360.246826,245.087509 359.026276,238.170441 357.048828,232.081619
	C355.005432,225.789551 356.511688,218.855911 352.727661,213.159348
	C352.123352,212.249573 351.927094,210.999588 351.768005,209.874924
	C350.976135,204.278473 346.774963,202.001205 342.528778,205.557373
	C337.555176,209.722717 332.697601,213.963882 327.286469,217.586945
	C325.243866,218.954590 325.693054,227.146927 327.881775,228.912201
	C329.021637,229.831512 329.245728,230.727737 329.226898,231.821396
	C329.157227,235.873367 331.359619,239.754028 331.465210,243.288345
	C331.660431,249.823334 336.130493,255.146118 335.371277,261.654419
	C335.132477,263.701691 335.791107,265.744781 337.017334,267.286774
	C338.599243,269.276093 338.458282,271.196350 337.839447,273.283630
	C328.171478,271.509613 321.046326,264.993195 312.949005,260.373993
	C307.036835,257.001373 301.566498,252.775986 295.454163,249.865280
	C292.377777,248.400284 287.810669,247.946884 284.843811,250.051788
	C281.437836,252.468216 277.747192,252.184433 273.928406,253.654327
	C274.106232,250.343430 276.447266,249.423035 278.153503,248.020187
	C281.443878,245.314911 284.659119,242.581818 283.109650,237.578995
	C283.062317,237.426147 283.042847,237.224579 283.102142,237.084625
	C285.088196,232.398315 287.813110,227.902618 283.796021,222.707672
	C282.909363,221.561050 285.168060,219.911011 286.703735,219.202011
	C291.711334,216.890121 296.902191,215.100784 302.351593,214.161514
	C305.516357,213.616028 308.104004,214.527222 310.483490,216.868179
	C315.920166,222.216812 318.611542,221.763153 323.659546,216.274277
	C329.750214,209.651749 335.331085,202.469025 342.614838,197.047623
	C345.758209,194.707962 348.142853,191.650894 348.519165,188.095535
	C349.839050,175.624191 357.399048,176.099350 368.287689,177.740723
	C371.524933,178.228699 374.608002,179.773743 377.744995,180.881866
	C380.433624,181.831635 382.528076,181.420425 384.148071,178.804443
	C386.292847,175.341110 389.529785,173.467606 393.598267,172.994705
	C396.313202,172.679138 398.581726,171.387878 400.838715,169.856171
	C408.457733,164.685608 416.727203,161.607178 426.160248,162.059265
	C432.250610,162.351135 437.822021,161.855042 441.529053,155.373810
	C444.068207,150.934387 450.235229,150.477676 454.267609,153.972168
	C457.746216,156.986710 460.687256,155.357788 463.289215,153.681641
	C465.868713,152.019974 465.997559,149.102448 464.724701,146.067886
	C463.270660,142.601303 460.500397,138.874466 462.458282,135.164642
	C465.830963,128.774109 468.725616,121.812775 475.400421,117.838417
	C482.545197,113.584190 490.287323,111.572540 498.604523,110.850739
	C518.147705,109.154709 536.944153,112.503662 555.840149,117.134438
	C569.163147,120.399467 582.335571,117.627792 594.351440,110.653900
	C597.574829,108.783012 599.071167,105.555573 600.121216,102.160515
	C602.850098,93.336975 608.970337,86.910789 615.667419,81.166893
	C621.732056,75.965401 638.449341,76.763092 644.520569,82.061897
	C648.782043,85.781242 652.895325,89.690437 656.838806,93.744347
	C658.423096,95.372993 659.818298,97.465889 660.542664,99.603905
	C664.363831,110.883255 673.025269,117.751602 682.327515,124.080406
	C685.352417,126.138428 688.638733,127.849953 691.493774,130.113144
	C701.212036,137.816940 712.425964,142.355270 724.095947,145.999847
	C725.049683,146.297699 726.069580,146.428329 726.976501,146.824661
	C736.180054,150.846725 744.885681,150.501190 754.898621,147.782043
	C769.842041,143.723938 785.379211,144.521637 798.984558,153.989349
	C805.693909,158.658218 809.554321,165.549957 812.118164,173.036926
	C816.677002,186.349640 823.863037,198.020325 833.204163,208.413727
	C839.003357,214.866180 843.006714,222.338303 845.571960,230.488449
	C851.132141,248.153641 858.559692,265.069122 865.493286,282.196381
	C869.879150,293.030151 872.660034,304.368591 872.025818,316.246643
	C871.561890,324.936401 871.608398,333.692291 873.545410,342.116638
	C875.282532,349.671356 874.299622,356.230194 870.218689,362.577454
	C867.502625,366.801880 865.878052,370.724030 871.554504,374.256195
	C873.884949,375.706268 874.215576,378.792847 873.971375,381.550903
	C873.686829,384.764435 875.005188,387.125427 876.932983,389.673889
	C881.727295,396.011749 887.509338,400.441284 894.601440,404.401520
	C904.275146,409.803284 912.054871,418.217590 916.823364,428.702911
	C917.702332,430.635712 918.517517,432.908234 918.364746,434.949249
	C917.345703,448.562683 919.427429,462.296417 916.844482,475.828552
	C915.627747,482.203003 913.184326,488.252838 911.906860,494.658875
	C910.142456,503.506348 908.745728,512.391846 908.405701,521.360474
	C908.064453,530.362732 904.396362,537.340881 897.625122,542.936646
	C893.254700,546.548279 890.530518,550.782227 891.592896,556.815918
	C891.912109,558.629150 891.251160,560.417114 888.829346,561.431335
	C887.916931,556.907959 884.717041,556.366455 880.759216,556.095215
	C877.985291,555.905151 875.335876,554.078735 872.602966,553.057617
	C869.699768,551.972778 866.750671,552.085022 863.778076,552.850464
	C861.582275,553.415894 859.965515,554.607056 860.403198,557.012451
	C861.945251,565.486816 856.275574,572.899109 857.078613,581.373535
	C857.440857,585.196472 852.948120,588.338806 848.973572,588.299316
	C844.865356,588.258484 840.670288,588.939331 837.009094,586.063171
	C835.360168,584.767822 833.136292,585.428101 831.159363,585.341309
	C828.566101,585.227539 825.750610,585.928101 823.932983,583.155090
	C823.701904,582.802551 823.010925,582.450195 822.635742,582.537842
	C815.031799,584.314026 808.887695,578.924194 801.785339,578.338623
	C798.570374,578.073547 796.947876,574.228699 792.831055,575.184631
	C792.831055,568.813110 792.831055,562.864441 793.222412,556.377808
	C797.583191,553.792480 801.157288,551.057922 804.880676,548.660095
	C808.978943,546.020813 808.744751,541.482910 805.073730,537.915100
	C801.878479,534.809692 799.293030,531.318420 796.905945,527.623596
	C794.382202,523.717285 790.555176,522.827515 787.087463,525.881714
	C780.270325,531.885864 773.220276,537.440918 769.413269,546.463989
	C767.557373,550.862610 765.376099,555.786255 764.875732,559.858887
	C763.661621,569.740356 762.086670,580.415222 767.629517,589.664062
	C769.498840,592.783142 770.894958,597.272583 775.966492,598.870850
	C775.247925,594.938232 772.450745,593.228821 771.026733,590.671265
	C764.852173,579.581177 765.354126,568.046631 768.478699,556.311340
	C771.400391,545.337952 777.117737,536.232178 786.571411,529.687134
	C789.799255,527.452454 792.713135,526.666016 795.426636,530.701904
	C797.738342,534.140137 800.452942,537.323547 803.152283,540.480347
	C805.487976,543.211853 805.763977,545.106628 802.093689,547.042358
	C798.253967,549.067505 794.916138,551.890015 793.006836,556.011475
M809.274597,611.707336
	C812.692749,615.657776 816.968811,612.786133 820.826599,613.301270
	C816.865173,612.587585 813.351196,609.515930 808.521790,610.466553
	C801.225647,607.412842 792.974915,607.415466 785.973938,603.393738
	C783.341919,601.881775 780.632385,600.504700 776.807251,598.446960
	C778.814392,601.743103 780.518738,603.489014 782.784546,604.444641
	C791.171387,607.981873 799.578491,611.529419 809.274597,611.707336
M290.392395,684.751770
	C290.355927,687.060974 290.474182,689.385498 290.246185,691.675659
	C289.917114,694.981384 287.963501,695.258667 285.338074,693.984253
	C284.185364,693.424622 284.189209,691.585632 282.055939,691.488220
	C282.857422,695.496094 284.470154,698.549683 288.378448,700.663635
	C292.550720,695.034485 293.698395,689.312073 290.950623,682.209961
	C288.038452,670.856201 274.738251,659.892395 266.365112,662.139221
	C267.591034,664.119385 269.472076,664.299866 271.485413,664.650757
	C277.442841,665.689148 281.168304,669.292786 284.750732,674.279846
	C286.970428,677.369812 285.982910,682.262146 290.392395,684.751770
M750.443970,665.393555
	C744.728027,673.480225 743.174133,682.458618 745.381226,691.957581
	C746.276367,695.810242 745.526001,698.108643 741.390381,699.125610
	C748.886292,699.246399 749.914246,698.248291 748.468018,690.736694
	C747.437195,685.382385 747.459656,680.200989 748.645752,674.960876
	C749.398254,671.636353 751.148682,668.549500 751.690247,664.765869
	C752.867310,664.585022 753.748047,664.056824 754.647644,663.169617
	C759.563110,658.322266 763.663147,652.169250 771.765198,652.178894
	C772.664368,652.179932 773.448364,651.140625 772.974121,649.906982
	C765.386353,649.218018 754.470947,656.711182 750.443970,665.393555
M259.879639,692.302673
	C257.739288,687.474121 254.793777,683.231018 251.149887,679.411682
	C244.477783,685.734192 243.391815,694.731323 248.682312,702.060059
	C248.682312,696.952026 248.626114,692.543640 248.727722,688.138916
	C248.749115,687.211731 248.170456,685.830566 250.130768,685.560120
	C251.401306,685.384827 251.992584,685.652405 252.926849,686.459961
	C255.361099,688.563660 256.833038,691.712646 259.800018,693.604065
	C258.865295,696.385071 260.886627,698.493103 262.553772,699.260437
	C267.355621,701.470581 268.612427,705.045654 268.422516,709.739502
	C260.690430,711.112732 260.690430,711.112732 251.337280,704.910767
	C254.201767,713.250610 266.401672,716.707886 274.487488,710.885864
	C269.547150,704.993408 266.046814,698.029724 259.879639,692.302673
M731.382385,649.303162
	C725.999268,651.447571 724.402893,657.498230 723.073914,661.377991
	C721.029602,667.346375 717.887756,673.731018 719.186157,680.841675
	C719.979858,685.188599 719.329651,689.803711 719.273743,694.297668
	C719.261658,695.269348 719.214233,696.365234 718.071899,696.810608
	C716.584534,697.390381 716.294250,695.947510 715.432800,695.356262
	C713.623962,694.115112 713.673889,690.453735 709.393982,691.199463
	C719.479004,704.719116 729.378967,717.546082 739.970154,730.314880
	C740.887451,728.410767 740.686340,727.406372 739.807007,726.422791
	C735.482849,721.585876 730.831238,717.054199 727.921082,711.038269
	C727.208252,709.564758 725.010376,708.665710 726.205139,706.614990
	C727.328369,704.687073 729.063843,703.580688 731.533081,703.591309
	C734.239685,703.602966 737.182373,704.388794 739.571289,702.109985
	C738.267334,699.697510 736.210205,700.233521 734.313354,700.668396
	C732.213501,701.149719 730.117310,701.738770 728.111694,702.518127
	C724.810181,703.801086 723.355408,702.648254 722.393677,699.335266
	C719.871826,690.648010 719.965332,682.080322 721.818726,673.249817
	C723.668213,664.437683 728.370300,656.978394 732.551331,648.631104
	C744.277710,633.346191 758.928162,623.012085 778.878235,621.555908
	C771.040039,618.693604 763.995422,621.157959 757.329285,624.521484
	C750.963501,627.733398 744.698975,631.388794 739.692505,636.553772
	C736.290833,640.063171 731.268066,642.849915 731.382385,649.303162
M757.862183,753.245117
	C758.142883,749.586243 755.970459,747.699463 752.282532,745.729980
	C753.863342,749.470154 755.284973,752.172363 758.327942,754.598083
	C763.754150,763.775879 771.304199,771.428833 777.391846,780.670471
	C772.248535,784.698486 767.404419,788.703918 762.343018,792.412842
	C751.221313,800.562622 740.930237,809.833130 728.894958,816.756714
	C712.677368,826.086182 690.880127,826.490845 677.560974,811.473938
	C676.764343,810.575684 675.843567,809.156067 674.247009,810.466553
	C674.593872,814.529602 678.615845,815.219543 680.897095,817.436279
	C684.838562,821.266418 689.892395,824.363831 695.261902,824.452881
	C704.968628,824.613953 714.965332,826.541138 724.314819,821.643127
	C728.840027,819.272461 734.679688,817.387451 737.523438,814.250793
	C741.941895,809.377258 748.022156,807.446289 752.411804,802.872437
	C755.175049,799.993347 758.720459,797.515381 762.223267,795.171387
	C766.324219,792.427246 771.129456,790.293945 774.390991,786.643311
	C776.507629,784.274170 782.283081,782.295959 777.186218,776.655396
	C775.023132,774.261658 772.510559,771.363892 771.164856,768.008057
	C768.766541,762.027039 762.280762,759.369812 759.370850,753.763916
	C759.308716,753.644043 758.456116,753.934509 757.862183,753.245117
M597.408691,299.599884
	C598.851624,304.539032 603.902710,304.431793 607.338379,306.539337
	C608.348694,307.159088 609.592102,306.007538 610.749756,305.195312
	C614.549194,302.529663 613.078857,297.228851 616.645142,294.462250
	C619.549316,292.209290 621.696533,288.651733 622.151367,285.425140
	C622.776245,280.991608 625.701721,280.195648 628.437073,278.409424
	C634.560974,289.942505 647.200439,297.722961 657.133057,296.086609
	C644.175964,291.703796 633.100769,285.240540 627.433350,271.268097
	C622.284302,279.075958 618.824829,286.611511 614.921082,293.911652
	C609.058838,304.874023 608.905640,304.790802 597.914734,299.336456
	C597.619873,299.190094 597.283813,299.126740 596.470154,298.575745
	C594.777344,297.521820 593.118591,296.407959 591.385498,295.425079
	C585.864563,292.294006 585.889282,292.332275 588.974365,286.717712
	C596.345215,273.303375 603.666077,259.861511 611.031738,246.444305
	C620.802063,228.646515 630.634521,210.882690 640.342346,193.050919
	C642.012756,189.982651 643.783081,188.873917 647.045776,190.887283
	C650.583313,193.070312 654.317200,194.932983 657.940186,196.980118
	C664.146851,200.487076 664.133728,200.499542 661.193970,207.144974
	C661.093018,207.373154 661.298096,207.736710 661.443665,208.437180
	C674.435547,205.095032 685.957031,208.958160 695.769409,217.197617
	C712.557678,231.294647 715.973572,254.271652 704.727234,273.240936
	C695.412964,288.951263 682.168945,297.863098 663.294250,296.520630
	C660.917419,296.351532 660.510986,298.162018 658.690491,299.488098
	C672.363892,300.460999 684.432678,297.351898 695.921875,290.167175
	C692.088135,295.834534 694.327942,302.020294 693.052917,307.654205
	C692.030579,312.171753 693.759216,318.447906 694.510376,323.896790
	C695.276978,329.457642 698.016113,334.399689 702.766296,338.002869
	C693.541626,319.515900 689.820557,300.783417 704.142517,283.625549
	C721.755920,262.524658 743.403503,260.502747 767.927734,274.954926
	C764.074829,267.852631 757.208008,266.154205 752.878906,265.952942
	C742.009766,265.447723 730.664917,262.550507 719.913635,268.117523
	C716.550049,269.859161 712.950256,271.102386 710.190796,273.780731
	C709.389160,274.558746 708.694763,275.309021 707.735962,274.637878
	C706.497131,273.770782 707.223999,272.864594 707.793640,271.701324
	C709.862488,267.476471 712.508362,263.266144 713.337463,258.756378
	C715.235474,248.431549 713.250793,238.339661 708.898987,228.835403
	C705.320251,221.019501 698.064331,215.962387 691.773621,211.180267
	C685.810181,206.646912 677.447937,204.003708 669.086182,204.296310
	C666.774170,204.377243 664.849487,204.155563 664.610962,201.025238
	C664.404480,198.316452 662.027283,195.697693 660.350342,194.943756
	C655.691956,192.849380 651.037231,190.723434 646.366089,188.627380
	C642.543030,186.911865 637.315735,189.653748 636.527588,193.596603
	C635.218262,200.146667 630.704285,204.909286 627.604614,210.417816
	C626.392395,212.572083 627.366760,215.427582 625.384521,216.758957
	C618.641663,221.287872 617.976685,229.532959 613.912476,235.713242
	C609.731140,242.071472 605.972412,249.041061 602.328369,255.905762
	C599.776001,260.713928 597.279297,265.642487 594.891785,270.422211
	C592.611389,274.987457 590.021606,279.561493 587.305725,283.717896
	C584.591370,287.872040 584.131775,293.003418 586.125427,295.111755
	C588.220398,297.327332 592.180847,301.289429 597.408691,299.599884
M328.139862,770.642334
	C315.006012,783.398376 301.776825,796.058838 288.810333,808.982727
	C285.840088,811.943237 283.599884,812.336609 279.885895,810.331909
	C273.990112,807.149536 268.318726,803.378906 261.708496,801.330627
	C261.378784,803.363098 262.170532,804.754944 263.591431,805.294373
	C270.257446,807.825134 276.948669,810.255127 282.896301,814.329529
	C283.754120,814.917175 285.175018,814.809814 285.646851,813.964233
	C286.802612,811.893066 289.187683,811.704529 290.707001,810.113281
	C299.164368,801.255005 308.324951,793.108643 316.710297,784.148499
	C321.833099,778.674438 328.018555,774.193359 333.743530,769.285828
	C334.756836,768.417236 335.064514,766.203796 337.130341,767.238586
	C338.608154,767.978943 338.168427,769.544922 338.263031,770.812866
	C338.957611,780.122375 333.609253,788.737366 335.087219,798.149719
	C335.128448,798.412292 334.866547,798.787842 334.647308,799.015869
	C332.211670,801.549561 332.325104,804.736755 332.296600,807.906982
	C332.278656,809.903748 332.887909,812.356934 331.967010,813.818481
	C327.462494,820.967285 330.013824,828.772644 329.354279,836.255615
	C329.163269,838.422363 329.932861,839.748047 332.189026,840.844421
	C338.003113,843.669434 344.109711,845.962891 349.348572,849.952026
	C351.277313,851.420776 353.233246,850.758057 354.989410,848.771118
	C360.950043,842.027344 368.002197,836.421143 374.950287,830.774353
	C376.684082,829.365295 376.326233,827.389282 378.043915,826.027100
	C383.151062,821.977112 387.811493,817.363892 392.648071,812.972534
	C396.569275,809.412292 400.492676,805.854614 405.275513,801.515198
	C405.584198,819.993408 400.776031,836.156494 396.461212,852.503906
	C394.979340,847.896423 394.385529,843.337463 393.723572,838.788391
	C393.249390,835.529480 392.459869,832.521729 388.390808,831.987244
	C381.579254,831.092407 375.553436,836.024719 375.046814,842.895325
	C374.802155,846.213318 374.536255,849.550415 373.940002,852.816772
	C373.132324,857.241516 374.710510,860.238831 378.613190,862.266602
	C379.931396,862.951477 381.224823,863.780884 382.323669,864.772461
	C385.460693,867.602966 388.604584,869.096802 392.475922,864.645813
	C393.890320,872.924500 398.672607,876.892212 405.802368,879.352722
	C408.916260,880.427429 412.302246,882.207581 415.014130,884.367859
	C417.711121,886.516113 420.475098,885.960388 423.014099,885.302795
	C425.783966,884.585205 424.433014,881.652466 424.719543,879.652161
	C424.883820,878.505127 424.401123,876.875366 425.014069,876.244812
	C429.663086,871.462036 427.115479,865.548462 427.785461,860.164978
	C427.989990,858.521606 427.335541,856.139343 428.215179,855.319580
	C432.375458,851.442810 431.167236,846.477234 431.929230,841.785095
	C433.241943,833.701599 435.648376,825.791626 434.917328,817.453003
	C434.869293,816.905273 435.322601,816.116333 435.787720,815.754944
	C437.769073,814.215942 437.856384,812.091980 437.860443,809.887512
	C437.878693,799.946167 442.372681,790.460510 440.865021,780.349243
	C440.686737,779.153625 441.678345,778.333130 442.397583,777.380676
	C445.178497,773.698059 443.127350,767.243530 440.486816,763.700928
	C438.026978,760.400757 434.047028,762.760925 432.382782,760.237366
	C429.488434,755.848572 424.489655,755.156555 420.508514,752.785156
	C418.465637,751.568237 414.754303,751.183289 412.979126,753.163635
	C408.594757,758.054688 403.354126,761.947021 398.719757,766.500549
	C389.350616,775.706177 380.309601,785.239807 370.762817,794.277588
	C368.948151,795.995483 367.614624,796.821106 365.411469,796.364014
	C364.395813,794.898804 364.204865,793.105286 364.751221,791.927429
	C368.452301,783.948669 364.954529,774.911682 369.704956,766.608521
	C373.314331,760.299744 369.778137,751.557373 373.356598,744.038330
	C375.165436,740.237610 373.669525,734.857422 373.638367,730.191589
	C373.628448,728.707703 373.824707,726.738647 371.884552,726.553833
	C366.536835,726.044373 363.106689,721.631531 358.429291,720.194885
	C355.393555,719.262451 353.515747,716.711304 350.220184,716.210022
	C343.779572,715.230347 339.838837,718.940491 336.395874,723.048035
	C328.789062,732.123108 319.497162,739.539612 311.878326,748.569702
	C308.519196,752.551025 303.096130,754.632629 300.958435,760.017395
	C303.495453,760.914124 304.182037,758.871460 305.227539,757.872925
	C317.992493,745.680725 330.793060,733.521362 343.315063,721.082397
	C346.255157,718.161743 348.566986,717.907898 351.959991,719.858643
	C357.583160,723.091370 363.342834,726.099609 369.145355,729.001770
	C371.880798,730.369934 372.525726,732.275818 372.018555,735.102112
	C368.551575,754.423706 365.032074,773.737488 361.827545,793.103149
	C361.131927,797.307068 359.600861,801.628296 360.864441,806.962646
	C369.230499,799.071655 376.947937,791.805603 384.650574,784.523987
	C394.444427,775.265381 403.682129,765.414856 414.204895,756.930176
	C416.430481,755.135559 418.473999,754.785400 421.021118,756.215637
	C425.951538,758.984009 430.954346,761.627136 435.975464,764.228882
	C439.647430,766.131592 441.542633,768.687439 440.461487,773.089539
	C439.631744,776.468018 439.243073,779.962219 438.775543,783.420776
	C437.860718,790.188477 434.709412,796.651489 434.048676,803.097717
	C433.351318,809.900940 431.870789,816.649048 431.260223,823.488953
	C429.801331,839.832397 426.687683,856.035095 424.023071,872.258606
	C423.420715,875.926086 423.471619,879.864990 421.228271,883.380371
	C414.711456,881.808472 410.460236,876.983459 403.830566,873.436829
	C408.321594,872.353699 411.623138,875.627930 414.220673,872.312012
	C421.014313,863.639282 422.622437,853.700623 421.186768,843.112000
	C420.544128,838.372070 415.921661,837.665222 412.634491,836.681396
	C409.717865,835.808411 408.674530,839.409058 407.505463,841.819824
	C405.495056,845.965515 403.393982,850.069275 401.364990,854.308289
	C402.433228,843.807617 404.140961,833.530457 405.856293,823.254517
	C407.587280,812.884888 409.325836,802.516479 411.273743,790.876587
	C402.108826,799.641418 393.951202,807.440613 385.796143,815.242493
	C375.447235,825.143188 365.087860,835.033020 354.765442,844.961243
	C353.112640,846.550903 351.582977,847.862915 349.108368,846.473755
	C344.173950,843.703796 339.235901,840.928589 334.185425,838.381531
	C331.131287,836.841187 330.269470,834.533875 330.808868,831.415283
	C334.011688,812.898987 337.221954,794.384033 340.428833,775.868469
	C341.540344,769.450928 342.649323,763.033020 343.759430,756.615234
	C343.251740,756.292725 342.744019,755.970276 342.236328,755.647827
	C337.708191,760.483093 333.180084,765.318420 328.139862,770.642334
M772.609619,360.068512
	C782.782288,355.120300 792.901245,350.056793 803.156006,345.284973
	C806.852112,343.565094 810.558105,339.562103 814.405884,340.977295
	C818.196838,342.371552 818.733093,347.763763 820.731689,351.364258
	C825.696655,360.308960 825.571045,360.377441 817.497070,365.703369
	C817.397583,365.769012 817.405396,365.997437 817.337891,366.240753
	C819.646973,368.717590 824.026001,368.511780 825.759155,372.001007
	C824.496826,372.957062 823.514282,372.556000 822.560547,372.336334
	C819.889404,371.721161 816.971008,369.670776 814.613159,372.316589
	C812.165283,375.063446 812.667603,378.473480 813.917114,381.754120
	C814.481140,383.234894 815.527100,384.853577 813.020264,386.385406
	C805.010681,378.562347 795.789612,377.492432 785.771240,382.611053
	C782.365479,384.351166 778.908447,385.990692 775.478882,387.684509
	C766.429321,392.153931 757.382019,396.627899 747.712036,401.407349
	C746.486572,397.328979 743.969238,394.868866 741.939941,391.593445
	C740.796631,395.442169 744.476318,396.613281 744.957031,398.948364
	C746.036133,404.190094 750.312134,403.646118 752.406921,401.955597
	C755.163025,399.731384 758.608887,399.615448 761.443970,397.522949
	C763.588501,395.940155 766.096558,393.748718 768.752258,392.870514
	C775.017456,390.798676 780.791687,387.880066 786.598022,384.826172
	C790.138184,382.964172 794.396973,381.863953 798.236145,381.409546
	C803.052307,380.839539 814.288330,391.723297 815.305359,396.750977
	C815.772583,399.060577 817.007080,400.150238 819.015564,399.821198
	C824.708435,398.888489 826.902527,402.946442 829.180969,406.738220
	C830.367981,408.713562 831.058105,411.001160 831.867981,413.186493
	C833.233582,416.871124 835.944763,418.123108 839.702209,417.987549
	C848.065369,417.685913 853.075317,412.707794 856.647766,405.863068
	C858.034851,403.205231 857.699646,383.299835 856.517456,380.612091
	C855.634460,378.604553 855.148682,376.539032 854.959473,374.348053
	C854.382507,367.667175 850.621216,364.217194 844.046936,365.240570
	C841.294067,365.669098 837.249084,363.314270 835.917114,366.806580
	C834.721985,369.939972 838.573364,371.812653 840.290588,374.131744
	C844.111084,379.291412 844.702515,381.761200 842.440552,386.880219
	C840.015991,379.279877 834.608948,374.380280 828.924927,369.621460
	C827.342773,368.296936 826.213562,366.344879 827.207703,363.831207
	C827.935852,361.990234 828.265564,359.873444 826.865662,358.125977
	C823.298279,353.673096 821.897888,348.088776 818.989563,343.242126
	C816.312317,338.780457 812.723694,336.337891 808.563049,339.300903
	C801.539062,344.303040 793.422241,347.341522 785.760925,350.692078
	C777.893005,354.132935 770.589172,358.646393 762.643555,361.951660
	C754.145996,365.486542 746.037109,370.155334 737.662354,374.132874
	C735.363464,375.224762 735.306519,377.100769 735.356995,379.156830
	C735.402344,381.004120 735.568359,382.726837 738.684570,382.989594
	C736.080627,378.757599 738.084106,376.784149 741.396667,375.200928
	C751.604004,370.322540 761.765198,365.347626 772.609619,360.068512
M447.045258,235.173981
	C445.613159,233.638962 445.637970,233.667145 444.126617,234.998459
	C439.675903,238.919022 435.681366,243.852585 429.633606,245.046112
	C423.847290,246.188065 417.836609,246.651703 411.899353,245.267136
	C410.594360,244.962814 409.124878,245.062668 408.911377,243.283905
	C408.696259,241.491852 409.142487,239.467285 410.930450,239.168625
	C417.754547,238.028717 423.746643,234.495178 430.320221,232.778137
	C434.453522,231.698486 438.582977,230.229233 442.521698,228.935150
	C448.247498,227.053940 454.058960,225.234314 459.848267,223.495819
	C465.168671,221.898132 467.068054,218.087784 464.271698,213.457352
	C463.944061,212.914856 463.620361,212.141998 463.752869,211.584869
	C465.103424,205.905380 460.490417,202.369537 458.300720,198.354675
	C452.174103,187.121353 440.954376,181.504089 429.235718,178.994781
	C421.743164,177.390396 412.715149,175.195572 405.520416,181.854340
	C405.011749,182.325089 403.900848,182.378769 403.115021,182.277344
	C398.905945,181.734100 395.634003,183.323776 393.160187,186.605621
	C392.229309,187.840622 391.008057,188.170135 389.688385,188.221237
	C386.920319,188.328445 385.046265,189.834763 383.451141,191.872528
	C380.576202,195.545303 378.840759,200.205292 376.133423,203.563843
	C372.962555,207.497375 370.879883,212.150330 370.749146,215.963928
	C370.351318,227.569839 367.301361,240.111374 377.056671,249.969025
	C377.581268,256.638245 382.557129,260.002075 387.201324,263.599945
	C391.378113,266.835724 395.282684,270.600281 400.711761,271.671478
	C410.589050,273.620331 420.505951,274.647461 430.564087,272.882080
	C432.533966,272.536316 434.517487,272.449066 436.324463,271.490723
	C442.327454,268.306976 448.427490,265.292053 454.311340,261.901794
	C460.444366,258.367950 464.314514,252.741257 466.506775,246.192810
	C467.337433,243.711578 467.516235,240.238297 464.330688,238.650070
	C459.973175,236.477554 456.095764,232.753525 449.365936,233.493713
	C453.827881,236.043884 457.209290,238.045792 460.656158,239.927902
	C464.443665,241.996033 464.820129,244.959961 462.680634,248.265182
	C460.239044,252.037125 457.497498,255.600662 453.770782,258.289398
	C445.549133,264.221222 436.490570,268.254028 426.536316,270.099823
	C408.488464,273.446381 392.766022,268.959473 381.640869,254.025208
	C371.208099,240.020447 368.791779,224.352615 376.365753,207.908310
	C381.781219,196.150528 391.244904,188.992416 402.979248,184.397369
	C428.372711,174.453583 454.355988,186.985931 462.180237,213.027939
	C462.940948,215.559845 464.654968,218.695129 460.471069,220.110123
	C447.400726,224.530502 434.299286,228.859055 421.237518,233.304398
	C415.025360,235.418610 408.588684,236.966370 402.523560,239.861847
	C403.972107,243.319809 406.456238,244.995850 409.055725,246.452057
	C420.841888,253.054611 437.653992,248.258072 447.045258,235.173981
M780.694092,459.271698
	C778.766785,461.174561 775.858093,459.619263 773.753052,461.451355
	C765.629333,468.521790 764.665710,481.928131 771.823669,489.824219
	C778.848267,497.573120 797.525391,498.166626 802.179138,484.329590
	C803.935791,479.106506 804.659668,472.165649 801.650391,467.325623
	C797.354431,460.416016 790.919922,456.690857 780.694092,459.271698
M521.048157,240.462067
	C520.896423,244.469406 523.430542,246.765228 526.410156,248.703720
	C530.748413,251.526138 534.594055,254.887024 539.745667,256.719696
	C545.530212,258.777527 550.847168,262.249420 557.294434,261.696228
	C565.712708,260.973907 574.057068,262.807953 582.636902,259.222809
	C590.182495,256.069855 596.463440,252.053207 601.897522,246.288086
	C609.992676,237.699646 611.146790,226.335052 613.502869,215.624054
	C614.894165,209.299057 609.308655,203.521790 610.370605,196.873688
	C610.411987,196.614227 610.152222,196.212311 609.916565,196.017166
	C606.684753,193.340942 606.120483,188.699356 603.235596,186.091751
	C598.960999,182.227951 596.221741,176.766907 589.875916,174.785141
	C586.976318,173.879608 583.529541,173.211624 581.009460,171.555817
	C573.831299,166.839554 565.627014,167.665741 557.827087,166.382919
	C555.190979,165.949341 553.145447,168.450211 550.265320,168.411011
	C543.733093,168.322083 535.148621,172.412994 530.071472,177.329132
	C529.364624,178.013596 528.505615,178.578720 527.636963,179.052094
	C522.457153,181.874863 520.703735,187.480423 517.300720,191.740402
	C514.533508,195.204437 515.310608,199.972351 513.684387,203.556961
	C508.677521,214.593567 512.170959,224.546371 516.104126,234.583618
	C516.934875,236.703751 517.671448,239.452301 521.048157,240.462067
M470.314087,166.500793
	C470.309052,172.667145 470.291138,178.833527 470.310303,184.999802
	C470.313904,186.157318 470.231079,188.241714 470.584137,188.330917
	C475.032990,189.454819 473.079254,193.007477 473.175201,195.428497
	C473.458862,202.584061 473.363037,209.757812 473.298157,216.923386
	C473.181152,229.850067 478.043976,242.357681 476.443329,255.424164
	C476.123779,258.032959 478.162109,258.701294 480.435089,258.687164
	C485.767822,258.653961 491.218842,259.369537 496.410034,258.506714
	C508.806580,256.446289 511.157196,254.589752 507.548676,243.266388
	C504.470093,233.605988 504.878998,224.063751 504.712341,214.366592
	C504.660828,211.367325 504.759491,208.363388 504.632263,205.368256
	C504.547913,203.382660 504.860779,200.890579 503.817108,199.528198
	C500.825500,195.622986 501.931854,191.338089 501.844727,187.169250
	C501.733337,181.839310 501.933380,176.503418 501.872803,171.171524
	C501.852234,169.362106 502.061920,167.088806 501.106415,165.835800
	C497.944214,161.689133 498.804138,157.065231 498.748657,152.513306
	C498.693787,148.013870 498.539185,143.508850 498.697662,139.015778
	C498.823151,135.458542 497.174347,133.499176 493.838745,133.423752
	C486.177368,133.250534 478.506592,133.269424 470.845184,133.448135
	C468.380859,133.505630 466.326324,134.782028 466.120850,137.674057
	C465.778778,142.489334 468.196625,146.864319 468.036774,151.680801
	C468.966370,148.035553 469.422150,144.455963 469.777466,140.866425
	C469.952942,139.093689 470.273773,137.448181 472.377686,137.179474
	C478.645844,136.378906 484.919220,135.611923 491.201202,134.930130
	C493.582367,134.671692 494.943909,135.838562 495.177032,138.316895
	C495.847290,145.441864 496.632935,152.556351 497.258575,159.685043
	C498.829102,177.580032 500.318024,195.482193 501.875732,213.378342
	C502.900543,225.152527 503.976257,236.922363 505.054657,248.691803
	C505.375702,252.195847 504.402740,254.118317 500.373962,254.681000
	C495.049072,255.424698 489.724213,255.064163 484.419891,255.555923
	C481.153137,255.858795 480.036255,253.644348 479.753662,250.899536
	C478.390778,237.661621 476.936554,224.430771 475.785645,211.173904
	C474.018890,190.823242 472.473633,170.453354 470.834320,150.091614
	C470.660248,150.100754 470.486176,150.109879 470.312103,150.119019
	C470.312103,155.246643 470.312103,160.374283 470.314087,166.500793
M748.645996,353.180450
	C748.639343,350.016235 748.651611,346.851837 748.621155,343.687866
	C748.586365,340.075714 747.047180,338.068146 743.121216,338.324005
	C741.666809,338.418762 740.042480,338.352295 738.733459,337.797882
	C733.646606,335.643250 729.972473,331.531738 725.802185,328.098694
	C721.971741,324.945435 722.531250,319.697174 719.846680,315.918793
	C719.088074,314.851135 718.547668,311.772736 721.574158,310.529175
	C723.963501,309.547394 725.099243,309.860809 726.925720,311.904480
	C734.286621,320.140594 742.271362,327.757996 748.578796,336.989929
	C751.829529,341.747925 756.655640,345.463654 760.896790,349.528534
	C763.944031,352.449188 767.105164,352.486603 769.155884,350.657013
	C774.777222,345.641754 780.365173,340.596008 784.006042,333.531311
	C786.300232,329.079773 786.816528,324.223297 788.930115,319.731934
	C790.957520,315.423676 791.098328,309.280487 788.636780,304.755463
	C786.250305,300.368103 785.806091,295.541656 783.895203,291.084961
	C782.363464,287.512512 780.276550,285.693878 775.914429,283.571594
	C783.976379,294.173889 787.333801,304.828552 786.368408,316.800293
	C785.278687,330.313904 778.727539,340.532898 767.991638,348.456787
	C765.546326,350.261566 764.024841,349.930054 762.146118,347.791718
	C755.339111,340.043793 748.389221,332.421570 741.550110,324.701538
	C735.084106,317.402710 728.689575,310.040497 722.173462,302.603363
	C716.805481,309.500397 716.910217,319.084839 722.174377,326.373566
	C727.263855,333.420532 733.426147,339.098633 742.388367,340.771881
	C744.550171,341.175446 746.199585,342.018555 745.990845,344.646454
	C745.635315,349.124786 745.373596,353.611450 744.953918,358.083496
	C744.698181,360.808960 743.461243,362.001343 740.320679,361.774658
	C734.857910,361.380402 729.790955,359.627502 724.828674,357.760101
	C724.007874,359.417480 724.460327,360.237671 725.680481,360.427521
	C728.225281,360.823517 730.321045,362.216827 732.537231,363.328888
	C740.256775,367.202393 748.123657,363.470428 748.645996,353.180450
M674.085632,738.361206
	C668.580444,739.109253 664.019653,735.765625 659.211182,734.219360
	C653.409668,732.353821 650.933899,732.022217 645.638123,734.982117
	C640.194275,738.024841 637.275513,743.967407 631.087158,746.193726
	C629.294678,746.838623 624.722412,750.729004 628.404846,753.543640
	C630.827881,755.395752 633.929810,758.268555 637.882141,757.684265
	C643.255981,756.889709 647.223999,762.388733 652.737915,760.976440
	C652.957275,760.920166 653.459290,761.226685 653.534668,761.459656
	C654.706177,765.080078 657.750183,764.784302 660.515686,764.629089
	C664.771301,764.390320 665.982056,766.031189 665.412964,770.277527
	C664.296448,778.609192 664.950684,787.009216 665.141663,795.393555
	C665.208008,798.304626 668.641357,798.959229 668.281250,801.805725
	C667.834961,805.333557 670.432739,806.610107 673.478271,807.888550
	C664.856750,794.275208 663.109619,780.278625 670.357666,766.274597
	C669.386719,764.692627 668.355164,764.577637 667.410645,764.277161
	C656.802124,760.902344 646.187866,757.544739 635.599121,754.108765
	C634.078125,753.615295 632.106140,753.349426 631.696411,751.414368
	C631.271545,749.407654 633.105347,748.481506 634.345154,747.520447
	C638.945740,743.953796 643.726196,740.618225 648.306641,737.026917
	C650.628784,735.206177 652.912842,734.753906 655.714783,735.663452
	C664.714233,738.584839 673.752380,741.386963 682.776733,744.231506
	C685.263428,745.015259 687.633850,746.396057 690.260803,744.234436
	C694.370422,740.852722 698.658691,737.687378 702.886353,734.450134
	C705.146301,732.719604 705.477539,730.945190 703.591064,728.584045
	C700.684570,724.946106 698.269043,720.889099 695.158691,717.449890
	C692.866455,714.915222 691.544373,711.288391 687.740234,710.178467
	C691.079224,715.694519 693.826111,721.584290 698.970154,725.769165
	C702.251648,728.438782 702.245728,733.089111 699.607727,734.280701
	C694.018799,736.805298 690.198914,743.342407 682.402039,741.621155
	C679.475830,740.975159 677.574890,739.031799 674.085632,738.361206
M212.818192,616.824036
	C221.010117,620.312195 228.778717,618.739197 236.262268,614.711304
	C247.508987,608.657959 250.914078,594.592957 243.811829,583.884705
	C235.218079,570.927795 211.675446,572.664307 203.343124,586.523499
	C197.481384,596.273376 201.240189,611.096741 212.818192,616.824036
M720.445679,750.400818
	C719.568787,749.632446 718.661560,749.609009 717.742065,750.311951
	C715.096741,752.334351 712.368652,754.259583 709.831665,756.410217
	C704.536011,760.899292 698.181335,764.204651 694.497498,770.504517
	C690.690063,777.015686 691.125610,784.401245 695.987183,791.103882
	C700.366150,797.141113 707.258911,799.889709 714.401489,797.805237
	C724.777771,794.777100 732.404236,787.323792 740.505371,780.715881
	C742.625122,778.986938 740.851868,777.403809 739.802002,776.001648
	C733.519714,767.611877 727.194336,759.254517 720.445679,750.400818
M659.869690,272.688263
	C668.529602,273.597565 674.920410,269.713959 680.113403,263.191254
	C690.481262,250.168457 685.742859,232.065445 670.685730,227.281235
	C654.967407,222.286911 637.467896,238.350342 640.885864,254.689926
	C641.573853,257.978516 642.067139,261.456757 645.170166,264.013000
	C645.883362,261.919250 646.113281,260.083160 644.658813,258.999146
	C642.539185,257.419342 643.041016,255.276428 642.588440,253.223221
	C641.438965,248.008255 644.794556,244.004730 646.518311,239.866409
	C648.340271,235.492371 652.400085,231.596771 657.175842,230.083221
	C667.013123,226.965515 675.637207,230.782928 680.986389,239.849747
	C682.490906,242.399811 685.167664,244.296890 684.401550,248.053436
	C683.951843,250.258591 681.754700,250.927155 681.405273,253.036285
	C680.399780,259.105438 676.690552,263.518127 671.898438,266.957458
	C667.358032,270.216217 663.237610,273.714539 656.702148,269.105133
	C654.261658,267.383911 650.985596,265.426544 647.805969,263.760468
	C647.827271,268.550476 650.710266,270.738281 659.869690,272.688263
M837.002625,700.225586
	C829.869263,719.049683 817.828003,733.328064 798.396118,741.078979
	C802.338989,742.543579 804.515808,740.328857 807.291382,738.992188
	C812.568604,736.450623 816.623108,732.510315 821.161316,729.095642
	C824.268494,726.757690 825.148926,722.910278 827.806885,720.357239
	C829.291870,718.931091 831.086609,718.446594 832.019714,715.779846
	C833.832336,710.599609 836.534180,705.646790 838.768250,700.604370
	C841.428162,694.600769 841.930664,688.428040 843.502380,682.410156
	C844.557129,678.371948 842.568481,674.007812 842.052490,669.849609
	C840.914124,660.675537 836.705139,653.189270 832.064575,645.676819
	C831.178955,644.243225 831.172729,641.905151 827.818726,642.919373
	C840.737183,660.237488 843.566528,679.143433 837.002625,700.225586
M430.277191,205.120361
	C428.000702,203.352524 425.328003,202.434296 422.604126,201.713181
	C411.078766,198.662094 397.842407,207.539856 396.429291,219.219803
	C395.803802,224.389435 396.817932,225.285767 401.698334,223.747940
	C404.699463,222.802292 407.694183,221.821228 410.639740,220.717178
	C418.784393,217.664383 427.308716,215.611176 435.207855,211.830841
	C434.731995,208.724579 432.445007,207.393097 430.277191,205.120361
M235.559418,660.074036
	C239.460999,656.566467 243.338013,653.030579 247.194916,649.637634
	C231.242264,655.167053 225.660446,668.423889 221.282562,683.368591
	C218.775238,691.927856 224.314972,710.902710 235.531570,721.791992
	C221.893600,701.343689 217.707275,680.926636 235.559418,660.074036
M740.687866,299.811066
	C746.872009,307.334839 753.335571,314.590698 760.450439,321.309631
	C767.252197,313.299713 766.379944,303.009308 758.650024,294.861694
	C751.729065,287.566925 741.018005,286.163910 733.966614,291.713409
	C735.070312,295.038330 738.486267,296.471588 740.687866,299.811066
M456.217499,806.290405
	C459.156708,800.228638 454.381256,794.834167 449.458069,796.244690
	C446.782288,797.011292 443.194733,798.442078 443.675262,801.404175
	C444.281616,805.141968 446.580383,808.909424 450.341187,810.627869
	C453.422668,812.035828 454.350220,808.712891 456.217499,806.290405
M269.580261,737.287048
	C257.172668,736.894165 247.115967,730.727356 237.418564,723.678162
	C247.436478,737.053223 277.598785,744.601440 284.941162,735.494751
	C279.788483,735.473328 275.275574,737.767151 269.580261,737.287048
M399.917236,888.632324
	C402.851624,890.557312 405.752350,892.597473 409.577637,891.266296
	C410.670807,890.885925 411.951538,890.654419 412.222076,889.310608
	C412.490234,887.978394 411.520447,887.176880 410.554474,886.494080
	C409.089264,885.458557 407.322540,884.876343 406.422180,883.063293
	C405.055939,880.312134 397.579041,879.618958 395.769287,882.018677
	C394.946320,883.109863 395.209534,884.322815 396.011261,885.227844
	C396.988770,886.331177 398.200897,887.226746 399.917236,888.632324
M799.077393,656.529602
	C801.844360,660.623230 806.516907,662.626160 809.381104,667.033264
	C812.145264,671.286499 810.997803,676.658447 814.632629,680.184998
	C814.670715,670.503967 810.035767,663.207825 802.773682,657.289185
	C797.357239,652.874756 791.263794,650.324585 784.269775,650.318298
	C789.475769,651.157288 793.643372,654.774658 799.077393,656.529602
M270.982605,788.488892
	C267.993774,791.637268 265.004944,794.785645 261.200317,798.793396
	C266.241943,796.594666 297.665741,765.841431 299.343781,761.180908
	C293.829010,766.490906 289.291199,770.863953 284.748962,775.232605
	C280.329742,779.482849 275.906067,783.728516 270.982605,788.488892
M269.223419,649.394653
	C270.458221,639.968933 271.893463,639.029724 280.602570,642.391296
	C284.746399,643.990784 288.765808,645.912659 293.246552,647.864990
	C290.900848,642.584473 285.767914,641.866150 281.977966,639.861511
	C278.998810,638.285767 274.517181,639.358276 270.722626,639.584167
	C268.192963,639.734741 268.461517,641.973267 268.324432,643.800232
	C268.155609,646.049866 268.989166,648.539856 266.924103,650.379272
	C264.417786,652.611755 265.213379,654.996826 266.374176,657.854370
	C268.561005,655.382019 268.389038,652.609131 269.223419,649.394653
M808.985229,628.368774
	C810.992920,629.529846 813.006653,630.680603 815.006531,631.855042
	C816.920349,632.978882 818.394714,635.077087 821.026794,634.559875
	C811.476318,626.667480 801.605408,619.535156 788.187866,621.243713
	C795.023132,623.089966 801.924316,624.783691 808.985229,628.368774
M696.812744,696.401733
	C695.195435,700.785706 687.581116,699.389526 687.423889,706.787231
	C694.645081,701.313721 701.008850,696.490112 708.277100,690.980896
	C702.391602,689.976318 700.438293,694.246155 696.812744,696.401733
M317.194122,697.654053
	C317.361633,698.156738 317.561829,698.625671 318.218292,698.240051
	C318.340088,698.168518 318.453705,697.965271 318.454224,697.822388
	C318.467163,694.250305 318.464386,690.678223 318.464386,686.157410
	C313.075928,690.759338 316.077240,696.148315 315.092407,700.643860
	C314.088776,705.225220 311.909393,709.527893 310.796356,714.609192
	C316.845978,708.809753 315.256561,701.607666 316.848022,695.177979
	C316.935913,695.829834 317.023804,696.481628 317.194122,697.654053
M788.975403,718.345093
	C790.661194,715.844604 788.262512,716.507935 787.339478,716.421387
	C785.667175,716.264648 783.630737,716.332703 783.536133,718.555969
	C783.339539,723.175415 783.344421,727.817749 783.594788,732.432800
	C783.666748,733.758362 784.894104,734.981018 786.686401,734.962952
	C787.029358,731.659363 786.338074,728.599060 785.288574,725.630676
	C784.087219,722.232849 784.751709,719.803894 788.975403,718.345093
M815.676636,686.523438
	C815.491333,685.939270 816.161377,684.562988 814.548828,685.298645
	C812.306885,686.321411 812.343262,688.332092 812.303040,690.356750
	C812.242615,693.393799 813.000916,696.619995 809.234619,698.477539
	C807.999817,699.086548 807.772705,700.988770 810.098022,702.229797
	C813.016541,697.534607 814.824280,692.533997 815.676636,686.523438
M251.209305,651.336731
	C254.218536,655.581055 256.794922,660.160889 260.489197,663.831970
	C261.885162,663.046753 261.938812,661.667358 261.491547,661.087036
	C258.504913,657.211975 255.381027,653.437195 252.155762,649.757751
	C251.703400,649.241699 250.997879,649.994568 251.209305,651.336731
M762.895569,485.991394
	C762.255066,485.346069 761.138123,484.039001 760.825623,485.599304
	C760.386597,487.790741 760.652710,490.258118 762.087952,492.248260
	C762.981934,493.488068 764.300293,494.744202 765.827087,493.806335
	C767.701111,492.655151 766.892761,490.916443 765.870483,489.511322
	C765.096191,488.446960 764.138672,487.515900 762.895569,485.991394
M816.570251,408.998871
	C817.859619,410.033112 819.128113,411.467468 820.813965,409.678650
	C821.566956,408.879669 821.651611,407.738373 820.986633,406.911682
	C818.829773,404.230469 815.987732,404.688629 813.047424,405.023407
	C813.337341,407.200500 815.149048,407.458069 816.570251,408.998871
M309.923615,670.340271
	C311.344269,673.783264 312.764923,677.226257 314.429199,681.259766
	C315.237885,678.598755 312.493896,669.331055 311.065033,668.684387
	C310.400909,668.383789 309.852081,668.940002 309.923615,670.340271
M743.081604,734.095825
	C744.459167,737.778503 746.985413,740.548584 750.589050,743.983093
	C749.752075,738.407043 747.300354,735.498718 743.081604,734.095825
M302.251038,658.084656
	C304.173615,660.690918 306.096161,663.297180 308.333313,666.329895
	C308.749268,665.259644 309.304688,664.549866 309.133240,664.158447
	C307.676331,660.832703 303.916626,659.318970 302.460388,655.815735
	C302.235626,655.275024 301.261017,656.642883 302.251038,658.084656
M789.917297,744.609192
	C791.617065,744.397156 793.519653,745.297852 795.269714,743.511902
	C793.232849,740.948730 788.270142,744.719238 787.745239,739.497253
	C787.438416,741.744080 786.746460,743.716003 789.917297,744.609192
M290.890686,732.013245
	C290.136902,732.556152 289.000244,732.758118 289.063354,734.043701
	C293.143677,734.264099 295.520508,732.741211 298.138214,728.080078
	C295.763885,729.358704 293.603546,730.522095 290.890686,732.013245
M270.496368,673.572937
	C269.125702,671.556213 268.212860,669.003845 265.018951,668.583862
	C265.120270,671.951233 267.020386,673.847229 269.087982,675.453613
	C270.419128,676.487793 270.661987,675.280762 270.496368,673.572937
M828.575439,616.716492
	C830.296082,616.215454 832.311218,618.685181 834.471619,615.354797
	C830.820618,615.830200 827.966248,612.797791 824.586365,615.403809
	C825.531555,616.803284 826.757874,616.595703 828.575439,616.716492
M276.914154,685.375427
	C279.140869,680.360535 273.700806,681.088867 272.328674,678.755981
	C272.769440,681.653809 274.436676,683.710327 276.914154,685.375427
z"/>
<path fill="#000000" opacity="1.000000" stroke="none"
	d="
M296.145447,325.812744
	C300.804260,325.783508 305.185852,324.693542 309.621704,324.080353
	C315.402893,323.281281 316.764160,324.330353 317.110779,330.254608
	C317.675842,339.911926 314.760681,348.675873 309.771179,356.765076
	C303.082794,367.608582 294.535400,376.412323 282.366821,381.224213
	C262.057037,389.255463 236.635803,379.315552 227.291351,359.561707
	C218.532791,341.046417 223.121597,319.765289 238.016571,305.187195
	C256.071167,287.516754 278.635742,288.726593 296.394409,302.015503
	C299.885956,304.628235 300.503723,306.702057 297.592041,309.991974
	C296.296173,311.456207 295.532135,313.391113 294.438477,315.408020
	C294.249176,315.842957 294.148041,315.982300 293.628418,316.417450
	C285.671967,327.213715 278.030975,337.642548 270.657013,348.256897
	C268.360901,351.562073 265.186829,354.415070 264.030396,358.929047
	C272.112640,361.334259 279.049896,359.751190 285.012634,354.354736
	C293.289703,346.863739 297.444550,337.669952 295.738892,326.299927
	C295.738892,326.299927 296.010773,325.975830 296.145447,325.812744
M264.428711,329.940918
	C267.370728,325.587341 270.312775,321.233795 273.242493,316.898407
	C265.618652,311.635254 253.809799,315.111267 248.602707,322.472137
	C242.112885,331.646301 242.469467,342.718018 250.064987,349.192261
	C255.332397,343.433838 259.292480,336.685944 264.428711,329.940918
z"/>
<path fill="#000000" opacity="1.000000" stroke="none"
	d="
M325.820923,299.923035
	C314.584106,293.128479 303.482391,286.465332 292.397614,279.774109
	C284.881561,275.237122 277.389313,270.660583 268.742645,265.406769
	C275.824707,260.071167 282.066071,255.002975 288.718933,250.549530
	C291.139679,248.929092 293.676697,251.406448 295.925659,252.784988
	C309.959747,261.387512 323.996979,269.985016 338.055573,278.547363
	C339.165253,279.223236 340.445129,279.619598 342.082947,280.337372
	C341.798279,273.309418 339.319183,267.110657 338.015045,260.715820
	C335.724792,249.485352 332.909454,238.348175 329.900116,227.284531
	C328.566986,222.383438 329.389313,219.059082 333.863739,216.405457
	C337.281860,214.378296 340.376587,211.797989 343.574432,209.409225
	C347.377167,206.568588 348.975861,208.794922 349.848114,212.205139
	C352.114258,221.065186 354.281006,229.950806 356.458282,238.833344
	C360.853394,256.763855 365.149567,274.719269 369.680359,292.615326
	C370.582764,296.179901 370.174133,298.482391 366.857330,300.586517
	C362.233002,303.520111 357.803558,306.827209 353.613525,310.357574
	C350.435852,313.034943 347.675476,312.482574 344.546539,310.626434
	C338.692078,307.153412 332.778656,303.779816 326.564758,300.327820
	C326.239777,300.290771 325.963257,300.042480 325.820923,299.923035
z"/>
<path fill="#000000" opacity="1.000000" stroke="none"
	d="
M243.007355,501.002563
	C232.528244,497.810974 221.549850,496.213074 211.294464,492.052246
	C212.347000,488.484650 214.937988,489.057159 216.865997,488.526245
	C223.239807,486.771088 224.265274,484.324097 220.616760,478.966187
	C217.637222,474.590668 214.914322,469.967407 208.973877,468.817444
	C207.590057,468.549530 205.715530,467.944550 204.964600,465.397705
	C210.121002,464.338043 214.651657,467.025940 219.394852,467.385223
	C223.491074,467.695496 227.545135,469.020935 231.529282,470.197540
	C234.373901,471.037598 235.776352,470.317474 236.774445,467.486115
	C239.750305,459.044250 242.653656,450.181580 244.086670,441.766388
	C246.012741,430.455719 240.928528,419.243256 231.063080,411.572632
	C226.810745,408.266327 221.869171,406.283173 216.702774,404.814728
	C210.974411,403.186584 210.668945,402.497620 213.050171,397.261597
	C211.698654,395.189240 209.301758,394.641876 207.253876,393.686768
	C204.144653,392.236755 201.910492,390.310120 201.863785,386.623505
	C201.804825,381.970490 197.021103,382.177795 194.538803,379.527863
	C201.267014,375.783417 208.592590,376.100494 215.396774,377.108490
	C232.210922,379.599335 246.956436,386.157990 256.587250,401.359161
	C265.250366,415.032867 267.705688,429.957550 264.645966,445.426758
	C261.132751,463.188385 256.298279,480.687500 252.101120,498.315735
	C250.790207,503.821533 247.057281,501.695374 243.386337,501.072205
	C242.993149,500.992126 243.000900,501.000336 243.007355,501.002563
z"/>
<path fill="#000000" opacity="1.000000" stroke="none"
	d="
M233.535263,419.670349
	C239.993088,425.335236 240.391190,432.605682 240.126968,440.244354
	C239.858215,448.014313 235.132584,454.974213 236.255325,462.953278
	C236.568878,465.181580 234.634018,466.266388 233.257294,466.250732
	C229.244720,466.205170 225.067184,467.371735 221.223282,465.000763
	C219.860443,464.160156 218.132996,463.353058 216.612381,463.421997
	C209.856354,463.728149 204.353287,458.489441 197.402985,459.357117
	C201.562271,457.714386 205.583328,456.196411 210.061340,456.755005
	C212.036255,457.001404 214.267380,457.342499 215.410141,455.162689
	C216.600372,452.892242 215.523163,450.795074 213.825653,449.352722
	C210.106232,446.192352 210.061035,442.712402 212.114594,438.657227
	C213.727783,435.471588 214.374496,431.997131 213.682617,428.455902
	C212.857651,424.233521 212.922241,420.224762 215.158340,416.374329
	C216.454910,414.141693 215.589645,411.860168 214.482819,409.752838
	C220.892258,407.761108 230.928085,413.011780 233.535263,419.670349
z"/>
<path fill="#000000" opacity="1.000000" stroke="none"
	d="
M200.072174,359.955109
	C201.362549,359.127075 202.300629,358.072174 203.339066,357.961884
	C209.393784,357.318756 213.625473,354.624146 215.026428,348.384247
	C215.676010,345.490936 218.473862,349.152344 219.373749,346.925446
	C221.331116,354.613739 224.611450,361.721191 229.235703,368.063721
	C231.556946,371.247498 234.747528,373.844818 237.771240,376.444153
	C238.875961,377.393799 240.973953,377.732758 239.371887,379.531647
	C238.257019,380.783539 235.530823,381.017090 234.952164,379.668243
	C233.737778,376.837372 231.668671,377.324188 229.620392,377.301147
	C225.546494,377.255310 221.895294,375.899567 218.032410,374.800507
	C210.503952,372.658569 201.982101,370.388184 194.673798,376.683838
	C193.439331,377.747192 191.713165,377.256927 190.322464,377.030701
	C187.422348,376.558990 185.810654,379.305023 183.284592,380.148987
	C182.074570,376.940674 184.063889,375.698669 185.674210,375.019653
	C190.931305,372.803040 193.847549,368.553955 196.483490,363.864319
	C197.272980,362.459747 198.655426,361.388519 200.072174,359.955109
z"/>
<path fill="#000000" opacity="1.000000" stroke="none"
	d="
M589.708801,791.391602
	C587.814941,791.187500 586.116516,791.295288 584.132019,789.589600
	C588.700989,786.882507 591.434082,782.834106 594.718994,779.294800
	C596.655029,777.208923 598.101379,778.653809 598.295288,780.907288
	C598.585693,784.281494 597.387207,787.192505 594.148499,788.652283
	C592.602051,789.349365 591.322144,790.285706 589.708801,791.391602
z"/>
<path fill="#000000" opacity="1.000000" stroke="none"
	d="
M175.394470,427.648010
	C174.112717,432.307495 172.946259,436.598541 171.685501,441.236450
	C169.746140,433.167328 172.305923,424.242737 177.312943,421.225739
	C177.816605,423.625031 175.978607,425.259613 175.394470,427.648010
z"/>
<path fill="#000000" opacity="1.000000" stroke="none"
	d="
M595.789307,773.756348
	C593.102966,772.550781 591.677429,770.543823 591.053955,767.823181
	C596.090149,767.480835 597.024109,768.627563 595.789307,773.756348
z"/>
<path fill="#000000" opacity="1.000000" stroke="none"
	d="
M146.811432,427.066345
	C147.655472,425.713623 148.392029,424.674377 149.128601,423.635132
	C149.367157,423.710999 149.605713,423.786865 149.844269,423.862732
	C149.437057,426.509949 149.029846,429.157166 148.572662,432.129211
	C145.676315,430.884247 146.361328,429.078033 146.811432,427.066345
z"/>
<path fill="#000000" opacity="1.000000" stroke="none"
	d="
M791.691040,463.498474
	C796.890930,463.618896 797.190430,467.496185 798.111084,471.248993
	C794.654114,461.281616 785.104614,467.621704 778.795044,463.663116
	C783.363770,460.751526 787.349304,461.953369 791.691040,463.498474
z"/>
<path fill="#000000" opacity="1.000000" stroke="none"
	d="
M791.473755,487.207977
	C797.396423,482.541656 797.396423,482.541656 798.337463,474.625763
	C800.363098,474.698792 801.688354,475.730072 800.897522,477.704498
	C798.779846,482.991394 798.970825,490.307129 790.437988,490.408295
	C789.510620,489.126282 790.537354,488.319885 791.473755,487.207977
z"/>
<path fill="#000000" opacity="1.000000" stroke="none"
	d="
M561.940552,169.672516
	C576.592346,170.779251 589.435791,174.722733 599.362488,185.778763
	C615.233765,203.455795 613.766296,232.642761 595.832153,248.201721
	C581.185486,260.908630 564.134399,262.202026 546.565186,256.659485
	C529.377319,251.237274 518.157104,239.336426 515.271790,221.200623
	C511.969727,200.445435 523.388733,177.828934 546.687561,171.618210
	C551.571655,170.316299 556.429993,169.515579 561.940552,169.672516
M544.179626,201.847061
	C541.804443,206.176895 540.785095,210.986664 540.668762,215.752213
	C540.480225,223.476715 543.395813,230.135376 550.129822,234.437378
	C559.229675,240.250809 570.135376,239.198654 577.140808,232.133057
	C584.922852,224.284180 586.499695,209.802673 581.112549,200.738632
	C574.699829,189.948975 553.552856,186.076797 544.179626,201.847061
z"/>
<path fill="#000000" opacity="1.000000" stroke="none"
	d="
M217.531204,578.758545
	C221.129837,578.704285 224.289505,578.669678 227.449158,578.669800
	C238.051575,578.670166 246.213165,587.683350 245.324509,598.396912
	C244.872238,603.849426 237.909851,612.429443 232.547516,613.136719
	C229.228485,613.574463 228.059357,616.700439 224.984238,617.418457
	C219.548691,618.687622 216.034256,615.316101 212.196426,612.934509
	C205.291870,608.649780 201.680527,598.026733 203.820145,590.172363
	C204.350067,588.227112 206.007614,587.782288 207.190903,586.737366
	C210.362320,583.936646 213.090973,580.563354 217.531204,578.758545
z"/>
<path fill="#000000" opacity="1.000000" stroke="none"
	d="
M696.030457,786.713867
	C692.438477,782.339783 693.086487,777.838745 695.550171,774.019714
	C697.856628,770.444275 700.685791,767.168396 704.373413,764.501709
	C707.871155,761.972351 710.591736,758.407898 714.489075,756.109009
	C718.319031,753.849915 720.456909,754.358215 723.082642,758.128906
	C727.976868,765.157349 733.274963,771.904602 738.776062,779.265564
	C735.036926,781.975891 731.269958,784.615356 727.605103,787.389526
	C724.235596,789.940186 720.914673,792.563354 717.685425,795.288635
	C714.645874,797.853760 704.093567,796.234497 700.532471,792.419495
	C698.971008,790.746765 697.653015,788.846680 696.030457,786.713867
z"/>
<path fill="#000000" opacity="1.000000" stroke="none"
	d="
M410.765686,204.059570
	C418.160889,203.337830 425.179840,202.575302 430.212189,209.239883
	C428.497864,213.001480 424.805817,213.283173 421.143494,214.820312
	C416.443726,216.792862 411.149231,216.022964 406.991302,218.928894
	C404.855927,220.421295 402.414520,221.188492 400.685486,219.362518
	C398.710510,217.276886 399.672028,214.949188 401.833221,212.950241
	C404.826111,210.182053 407.528259,207.099518 410.765686,204.059570
z"/>
<path fill="#000000" opacity="1.000000" stroke="none"
	d="
M739.376099,295.998169
	C738.088318,292.405060 739.026917,290.834076 742.749939,290.627991
	C753.928833,290.009247 763.155884,299.841431 761.569702,311.081665
	C761.252014,313.332825 762.371399,315.728455 760.622681,318.256866
	C753.570129,310.871643 746.610352,303.583588 739.376099,295.998169
z"/>
<path fill="#000000" opacity="1.000000" stroke="none"
	d="
M253.110809,322.052185
	C258.288513,319.753906 261.722137,313.751984 268.300690,316.134125
	C269.816711,320.131653 267.068359,323.260559 264.918793,325.101105
	C260.788116,328.637970 259.307800,334.002991 255.177780,337.332611
	C252.872635,339.190979 252.129608,341.856781 251.722260,344.650146
	C244.914322,342.283295 243.617874,336.037354 247.537888,329.909271
	C249.215103,327.287292 251.180954,324.910248 253.110809,322.052185
z"/>
<path fill="#000000" opacity="1.000000" stroke="none"
	d="
M572.012207,233.242752
	C570.335449,233.279968 569.091797,233.638138 567.961426,234.442276
	C564.411621,236.967560 561.416809,236.501053 557.263123,234.597137
	C552.870239,232.583572 548.922668,231.040359 546.125427,226.757004
	C541.952515,220.367142 542.764648,213.442398 544.877014,207.294266
	C547.391357,199.976013 552.660095,194.923294 561.677673,194.492783
	C569.235718,194.131958 573.389465,198.055954 578.543213,202.533401
	C584.904968,208.060272 583.156250,214.932632 581.595947,220.014099
	C580.210449,224.526138 576.996887,229.919800 572.012207,233.242752
z"/>
</svg>
